<svg width="71" height="39" viewBox="0 0 71 39" fill="none" xmlns="http://www.w3.org/2000/svg">
<path fill-rule="evenodd" clip-rule="evenodd" d="M24.5103 12.046C24.6686 12.6203 24.9523 13.1615 25.3944 13.6566C25.7177 14.0064 26.0674 14.3034 26.4368 14.5543L26.4632 14.5741L26.4764 14.5807L26.5028 14.5939C27.057 14.0262 27.6575 13.5312 28.1457 13.1483C29.7226 11.914 31.4974 10.7985 33.2789 9.76877C32.5333 9.35293 31.8405 8.81167 31.2203 8.1582L24.5103 12.046Z" fill="#00C297"/>
<path fill-rule="evenodd" clip-rule="evenodd" d="M27.3276 20.1992C27.9346 20.846 28.6142 21.3741 29.3466 21.7899C29.34 21.7107 29.3334 21.6711 29.3268 21.6843C29.2872 21.7569 30.3957 22.1728 31.128 22.6348C31.2204 22.1926 31.4513 21.7701 31.7548 21.3741L31.7614 21.3675L31.7878 21.3345L31.8208 21.2949V21.2883L31.8472 21.2553L31.8538 21.2487L31.8868 21.2091C31.9198 21.1695 31.9462 21.1365 31.9792 21.0969V21.0903L32.0122 21.0573L32.0451 21.0176L32.0781 20.978L32.1111 20.9384L32.1375 20.912L32.1441 20.9054L32.1771 20.8658L32.2101 20.328L32.2431 20.7998L32.2761 20.7602L32.3091 20.7272L32.3421 20.6942L32.3816 20.6612L32.4212 20.6282L32.4542 20.5952C32.4938 20.5622 32.5268 20.5226 32.5664 20.4896L32.606 20.4566L32.6192 20.4434L32.6456 20.4236C32.6917 20.3774 32.7445 20.3378 32.7907 20.2916H32.7973L32.8237 20.2718L32.8369 20.2586L32.8765 20.2256L32.8897 20.2124L32.9161 20.1926L32.9557 20.1596L32.9623 20.153L32.9953 20.1266H33.0018L33.0348 20.1002L33.0744 20.0672L33.1008 20.0473L33.114 20.0341L33.1536 20.0011L33.1668 19.9879L33.1866 19.9681L33.2262 19.9351L33.2328 19.9285L33.2658 19.9021L33.2987 19.8757L33.3383 19.8493L33.3647 19.8295L33.3779 19.8229L33.4175 19.7965L33.4307 19.7833L33.4505 19.7701L33.4901 19.7437L33.4967 19.7371L33.5231 19.7173L33.5561 19.6909L33.5891 19.6645L33.6155 19.6447L33.6286 19.6381L33.6616 19.6117L33.6748 19.5985L33.6946 19.5853L33.7276 19.5589L33.7342 19.5523L33.7606 19.5325L33.7936 19.5061L33.8266 19.4797L33.853 19.4599L33.8596 19.4533L33.8926 19.4269L33.9058 19.4137L33.9256 19.4005L33.9585 19.3741L33.9651 19.3675L33.9915 19.3477L34.0245 19.3279L34.1103 19.2685L34.1169 19.2619L34.1499 19.2355L34.1895 19.2025L34.2093 19.1893L34.2357 19.1695L34.2752 19.1365L34.3016 19.1167L34.3148 19.1034L34.3544 19.0704L34.394 19.044L34.4006 19.0374L34.4402 19.011L34.4798 18.9846H34.4864L34.526 18.9582L34.5722 18.9318L34.5854 18.9252L34.6117 18.9054L34.6579 18.879L34.6843 18.8658L34.7041 18.8526L34.7503 18.8262L34.7833 18.8064L34.7965 18.7998L34.8427 18.7734L34.8823 18.747L34.9284 18.7206L34.9746 18.6942L34.9812 18.6876L35.0142 18.6612L35.0604 18.6348L35.0802 18.6216L35.1066 18.6018L35.1528 18.5754L35.1792 18.5556L35.1924 18.5424L35.2385 18.516L35.2781 18.4896L35.2847 18.483L35.3309 18.4566L35.3771 18.4302H35.3837L35.4233 18.4038L35.4695 18.3774L35.4827 18.3708L35.5157 18.351L35.5618 18.3246L35.5816 18.3114L35.6014 18.2982L35.6476 18.2718L35.6806 18.252L35.6938 18.2454L35.74 18.219L35.7796 18.1926L35.8258 18.1662L35.8719 18.1398L35.8785 18.1332L35.9181 18.1133L35.9643 18.0869L35.9841 18.0737L36.0105 18.0539L36.0567 18.0275L36.0831 18.0077L36.1029 17.9945L36.1491 17.9681L36.1886 17.9417L36.1952 17.9351L36.2414 17.9087L36.2876 17.8823L36.3272 17.8559L36.3734 17.8295L36.3866 17.8229L36.4196 17.8031L36.4658 17.7767L36.4855 17.7635L36.5053 17.7503L36.5515 17.7239L36.5845 17.7041L36.5977 17.6975L36.6439 17.6711L36.6835 17.6447L36.7297 17.6183L36.7759 17.5919L36.7825 17.5853L36.822 17.5655L36.8682 17.5391C35.9511 17.2223 35.067 16.7932 34.2423 16.252L27.3276 20.1992Z" fill="#00C297"/>
<path fill-rule="evenodd" clip-rule="evenodd" d="M24.5102 12.0466C24.6686 12.6209 24.9523 13.1621 25.3944 13.6572C25.7045 13.9938 26.0344 14.2842 26.3972 14.5285C25.4208 13.7892 25.3746 11.5516 27.4859 10.3304L31.2335 8.16541L41.2095 2.40301C39.4017 1.3271 37.3036 0.69343 35.0603 0.640625C30.0987 3.12248 22.9993 6.65385 24.5102 12.0466Z" fill="#00C297"/>
<path fill-rule="evenodd" clip-rule="evenodd" d="M47.438 13.0625C40.2529 16.6599 24.3651 24.0724 36.4195 24.7259L46.0326 19.1747C46.93 17.4322 47.4446 15.4519 47.4446 13.3529C47.4446 13.2539 47.438 13.1549 47.438 13.0625Z" fill="#00C297"/>
<path fill-rule="evenodd" clip-rule="evenodd" d="M26.0409 18.3585C27.1692 20.3123 28.8516 22.1077 31.1345 22.6291C29.109 21.0516 28.878 19.3024 31.2863 17.9097L46.6858 9.01193C46.1514 7.54658 45.3596 6.20664 44.3633 5.04492C37.9568 8.25946 24.0616 14.9328 26.0409 18.3585Z" fill="#00C297"/>
<path fill-rule="evenodd" clip-rule="evenodd" d="M27.4797 10.3308L31.2273 8.16577L37.0797 4.78622C35.6413 3.57169 33.9259 2.6674 32.0455 2.18555C27.6975 4.54199 23.2966 7.68392 24.5173 12.0404C24.6756 12.6146 24.9593 13.1559 25.4014 13.6509C25.7115 13.9876 26.0414 14.278 26.4043 14.5222C25.4146 13.7896 25.3684 11.5519 27.4797 10.3308Z" fill="#007E94"/>
<path fill-rule="evenodd" clip-rule="evenodd" d="M36.4199 24.726C39.1647 22.7062 41.0648 19.6039 41.4937 16.0527C34.3878 19.7359 27.1631 24.2244 36.4199 24.726Z" fill="#007E94"/>
<path fill-rule="evenodd" clip-rule="evenodd" d="M31.2868 17.9081L41.3618 12.0863C41.0451 10.4163 40.3985 8.86513 39.4946 7.49219C32.7779 10.9377 24.4909 15.6506 26.048 18.3503C27.1763 20.3041 28.8587 22.0995 31.1416 22.621C29.1029 21.0566 28.8785 19.3008 31.2868 17.9081Z" fill="#007E94"/>
<path d="M10.1204 38.9234H0.817383V30.1445H10.1204V31.2733H4.12293V33.9333H9.57281V35.0554H4.12293V37.8013H10.1204V38.9234Z" fill="#00C297"/>
<path d="M23.0723 38.9242H19.1465L16.5997 35.8747L13.3668 38.9242H11.4666L15.7552 34.878L11.7107 30.1387H15.61L17.9391 32.8714L20.763 30.1387H22.6764L18.7308 33.8681L23.0723 38.9242Z" fill="#00C297"/>
<path d="M33.6814 31.2674H30.2109V38.9242H26.9054V31.2674H23.4481V30.1387H33.6814V31.2674Z" fill="#007E94"/>
<path d="M46.4946 37.2007C46.4946 38.2964 45.7556 38.93 44.2777 38.93H37.5544C36.0897 38.93 35.3375 38.2964 35.3375 37.2007V31.8739C35.3375 30.798 36.0831 30.1445 37.5544 30.1445H44.2777C45.7556 30.1445 46.4946 30.7716 46.4946 31.8739V37.2007ZM43.189 31.7353C43.189 31.4185 42.9911 31.2666 42.5886 31.2666H39.2501C38.8476 31.2666 38.6497 31.4185 38.6497 31.7353V37.3327C38.6497 37.6759 38.8476 37.8013 39.2501 37.8013H42.5886C42.9911 37.8013 43.189 37.6495 43.189 37.3327V31.7353Z" fill="#007E94"/>
<path d="M59.5321 37.3063C59.5321 38.237 58.8195 38.93 57.3548 38.93H48.5994V30.1445H57.3548C58.6876 30.1445 59.5321 30.7188 59.5321 31.7947V33.1544C59.4859 34.1379 58.9647 34.3492 57.0315 34.4284V34.468C58.9779 34.567 59.4793 34.732 59.5321 35.7617V37.3063ZM56.3255 31.8475C56.3255 31.4449 56.1738 31.2733 55.7515 31.2733H51.8983V33.9333H55.7515C56.1606 33.9333 56.3255 33.7485 56.3255 33.3723V31.8475ZM56.3255 35.6297C56.3255 35.2271 56.1738 35.0554 55.7515 35.0554H51.8983V37.8013H55.7515C56.1606 37.8013 56.3255 37.6165 56.3255 37.2403V35.6297Z" fill="#007E94"/>
<path d="M70.9334 38.9234H61.6304V30.1445H70.9334V31.2733H64.9359V33.9333H70.3858V35.0554H64.9359V37.8013H70.9334V38.9234Z" fill="#007E94"/>
</svg>
