<svg width="78" height="40" viewBox="0 0 78 40" fill="none" xmlns="http://www.w3.org/2000/svg">
<path fill-rule="evenodd" clip-rule="evenodd" d="M28.0402 12.6567C29.4121 12.6567 33.6179 12.6567 33.6179 12.6567V12.6447C33.1546 12.44 32.7575 12.1149 32.4085 11.6876C31.861 10.8569 31.7707 9.83355 32.1197 8.60557C32.4326 7.504 33.1306 6.48069 34.1655 5.54165C35.2004 4.64474 36.5482 4.19328 38.2269 4.19328H50.5376L52.7037 2.44161L50.5617 0.671875H36.7046C34.4302 0.671875 32.2641 1.40625 30.7117 3.91638L27.4626 11.1759C27.4566 11.1819 26.6683 12.6567 28.0402 12.6567ZM45.9828 10.0502L47.3065 7.10672H37.3845C36.5963 7.10672 36.0488 7.22711 35.7901 7.48594C35.3929 7.88323 35.1523 8.26246 35.0379 8.64169C34.8454 9.29781 35.0139 9.73122 35.5554 9.94792L36.0608 10.0442H36.0488H45.9828V10.0502Z" fill="#00C297"/>
<path d="M40.4472 15.0544L40.736 14.4405C41.0248 13.4593 40.5735 12.9657 39.3761 12.9657H35.1282C34.5806 12.9657 34.0812 12.8573 33.6299 12.6406L32.1618 15.9092H38.8346C39.4965 15.9152 40.038 15.6323 40.472 15.0544Z" fill="#007E94"/>
<path d="M48.8288 10.0508H41.0308C41.0429 10.0749 43.6181 10.4481 43.8528 12.7776C43.8829 13.3495 43.8107 13.9213 43.6482 14.4811C43.1187 16.281 41.9815 18.8272 38.1307 18.8272H26.554L24.412 20.3441L26.554 22.0296H41.5122C43.7986 22.0296 45.9948 21.2651 47.5472 18.6888L50.1104 12.9642C50.1044 12.9702 51.4582 10.0508 48.8288 10.0508Z" fill="#007E94"/>
<path d="M9.83089 27.5996L9.42182 29.098H5.15957C5.12658 29.098 5.06719 29.1046 5.0474 29.1244C4.99462 29.1442 4.94183 29.1706 4.90885 29.1904C4.87586 29.2234 4.83627 29.263 4.80988 29.2828C4.77689 29.3158 4.7439 29.362 4.7439 29.395L4.56575 30.0683C4.54596 30.1013 4.55256 30.1409 4.55256 30.1541C4.55256 30.1871 4.57235 30.2399 4.59215 30.2531C4.61194 30.2861 4.65153 30.3455 4.67792 30.3653C4.7307 30.3983 4.77029 30.4181 4.81647 30.4181H7.61399C7.71296 30.4181 7.83832 30.4247 7.95708 30.4445C8.07584 30.4643 8.18801 30.5039 8.28698 30.5237C8.38594 30.5567 8.49811 30.6095 8.57728 30.6623C8.65646 30.7151 8.76202 30.7943 8.8346 30.867C8.88738 30.9396 8.94017 31.0122 8.95996 31.0848C8.99295 31.1706 9.03254 31.2564 9.05233 31.3422C9.07213 31.4214 9.06553 31.5468 9.06553 31.6458C9.04573 31.7448 9.03254 31.8835 8.99955 32.0155L8.24739 34.801C8.22759 34.8802 8.18801 34.999 8.15502 35.0782C8.13522 35.1574 8.08244 35.2762 8.05605 35.3422C7.98347 35.4742 7.92409 35.5996 7.85151 35.6987C7.77894 35.7977 7.67997 35.9231 7.60739 36.0023C7.42265 36.1871 7.21811 36.3521 6.98719 36.4709C6.83543 36.5435 6.69028 36.6162 6.51874 36.636C6.36698 36.669 6.19544 36.702 6.02389 36.702H0L0.395875 35.1904H4.64493C4.69771 35.1904 4.7439 35.1838 4.79668 35.164C4.86926 35.1442 4.90884 35.131 4.96163 35.098C4.99462 35.0782 5.054 35.0386 5.08699 35.0056C5.11998 34.9726 5.16616 34.9198 5.16616 34.867L5.38389 34.0683C5.40369 34.0353 5.40369 33.9759 5.38389 33.9429C5.3641 33.9099 5.33771 33.8703 5.30472 33.8439C5.28493 33.8241 5.24534 33.7845 5.21235 33.7647C5.15957 33.7449 5.12658 33.7382 5.07379 33.7382H1.99917C1.9002 33.7382 1.78144 33.7317 1.68247 33.7118C1.5835 33.692 1.48453 33.6656 1.41855 33.6326C1.32618 33.626 1.2536 33.56 1.18103 33.527C1.10845 33.4742 1.06886 33.4148 1.01608 33.362C0.969893 33.2894 0.930305 33.2234 0.903914 33.1442C0.870924 33.0716 0.85113 32.966 0.85113 32.867C0.831337 32.6953 0.844532 32.4775 0.917109 32.2465L1.68247 29.395C1.71546 29.296 1.74845 29.1772 1.79463 29.0782C1.82762 28.9792 1.887 28.8471 1.95958 28.7481C2.01236 28.6491 2.09154 28.5303 2.16411 28.4313C2.24989 28.3323 2.34226 28.2201 2.44123 28.1409C2.5138 28.0617 2.61277 27.9957 2.69855 27.923C2.79751 27.8504 2.90308 27.7976 3.00205 27.7448C3.10102 27.7118 3.21978 27.6722 3.31875 27.6458C3.41772 27.626 3.55627 27.6062 3.67504 27.6062H9.83089V27.5996Z" fill="#00C297"/>
<path d="M10.2268 36.7087L10.3522 30.0156H13.4532L13.4268 34.2797L15.5645 30.0156H19.1274L19.035 34.3061L21.2585 30.0156H22.3934L19.101 36.7087H15.8812L16.0198 31.5932L13.44 36.7087H10.2268Z" fill="#00C297"/>
<path d="M29.8621 36.6817H27.1437V35.9688C27.1437 36.0216 27.0976 36.0744 27.0778 36.0942C27.0448 36.1272 26.9986 36.1866 26.9788 36.2064C26.9458 36.2592 26.8864 36.312 26.8534 36.3318C26.8204 36.3648 26.7611 36.4242 26.7281 36.444C26.6291 36.5232 26.5037 36.5892 26.385 36.6223C26.286 36.6421 26.1475 36.6751 26.0287 36.6751H23.1916C23.0398 36.6751 22.9079 36.6619 22.7957 36.6355C22.677 36.6156 22.578 36.5694 22.479 36.5232C22.3998 36.4704 22.3207 36.4176 22.2481 36.3318C22.1953 36.2592 22.1557 36.1536 22.1227 36.0546C22.0897 35.9556 22.0699 35.817 22.0699 35.685C22.0699 35.5529 22.0765 35.4011 22.0963 35.2625C22.1161 35.1305 22.1557 34.9655 22.1755 34.8269C22.2085 34.6948 22.2481 34.543 22.2745 34.4176C22.2943 34.2988 22.3471 34.1536 22.3734 34.0348C22.4064 33.916 22.4658 33.7641 22.4988 33.6255C22.5516 33.4935 22.6044 33.3615 22.677 33.2295C22.7297 33.1107 22.8221 32.9655 22.8947 32.8599C22.9805 32.741 23.0992 32.6222 23.1982 32.543C23.317 32.444 23.4621 32.3516 23.5941 32.2988C23.7128 32.246 23.8448 32.213 23.9767 32.1866C24.1087 32.1602 24.2473 32.147 24.399 32.147H27.5528C27.6056 32.147 27.6914 32.1272 27.7441 32.0942C27.8167 32.0744 27.8761 32.0084 27.9487 31.9556C27.9817 31.9358 28.0279 31.8764 28.0608 31.8301C28.0938 31.7773 28.1202 31.7245 28.14 31.6915C28.1598 31.6387 28.1598 31.5925 28.14 31.5397C28.1202 31.4869 28.107 31.4473 28.074 31.4143C28.0411 31.3813 28.0081 31.3417 27.9619 31.3153C27.9157 31.2889 27.8695 31.2757 27.8233 31.2757H24.3792L24.7223 29.9688H29.8225C29.994 29.9688 30.159 29.9886 30.2909 30.0084C30.4097 30.0414 30.5483 30.1008 30.6472 30.147C30.7462 30.1998 30.8584 30.2922 30.9243 30.378C30.9969 30.4572 31.0563 30.5826 31.0893 30.6816C31.1421 30.7806 31.1619 30.8994 31.1817 30.9985C31.2015 31.1173 31.1949 31.2361 31.1949 31.3549C31.1949 31.5067 31.1751 31.6849 31.1421 31.8367C31.1091 31.9886 31.0893 32.1602 31.0431 32.2922L29.8621 36.6817ZM27.6452 33.4671H26.1475C26.0749 33.4671 25.9957 33.5001 25.9429 33.5199C25.8703 33.5529 25.7978 33.5991 25.7252 33.6453C25.6724 33.6981 25.6064 33.7575 25.5734 33.8104C25.5207 33.883 25.4877 33.949 25.4745 34.0018L25.2171 34.9589C25.1974 34.9919 25.204 35.0513 25.204 35.0843C25.2237 35.1371 25.2237 35.1899 25.2435 35.2229C25.2765 35.2559 25.3227 35.3153 25.3689 35.3351C25.4019 35.3681 25.4745 35.3879 25.5075 35.3879H26.7413C26.7743 35.3879 26.8336 35.3813 26.8798 35.3483C26.9524 35.3285 27.0052 35.2691 27.058 35.2361C27.091 35.2163 27.1371 35.1503 27.1569 35.1239C27.1899 35.0711 27.2361 35.0183 27.2361 34.9853L27.6452 33.4671Z" fill="#00C297"/>
<path d="M39.5414 30.002C39.6602 30.002 39.7855 30.0218 39.8845 30.0416C40.0033 30.0746 40.1352 30.1076 40.2144 30.1538C40.3662 30.2396 40.5113 30.3518 40.5971 30.4838C40.6697 30.5828 40.729 30.7214 40.762 30.8402C40.8148 30.9723 40.8346 31.1505 40.8148 31.3221C40.8148 31.4211 40.8082 31.5465 40.7752 31.6653C40.7554 31.7841 40.729 31.9294 40.696 32.0614L39.9967 34.6686C39.9637 34.8007 39.9109 34.9327 39.8845 35.0515C39.8317 35.1835 39.7723 35.3089 39.7196 35.4079C39.647 35.5267 39.5612 35.6719 39.4754 35.7908C39.3963 35.9096 39.2973 36.0284 39.1983 36.1076C39.1125 36.1934 39.0004 36.2792 38.9212 36.3518C38.8222 36.4244 38.7035 36.4772 38.6045 36.53C38.4528 36.5828 38.3076 36.6356 38.169 36.6554C38.0371 36.6884 37.8853 36.7082 37.7468 36.7082H34.2763L33.6033 39.2297H30.5485L33.0029 30.0086H39.5414V30.002ZM36.0181 31.3287C35.9851 31.3287 35.9258 31.3485 35.8928 31.3683C35.8598 31.3881 35.8004 31.4541 35.7674 31.4673C35.7344 31.5003 35.6816 31.5597 35.6684 31.5927C35.6355 31.6455 35.6025 31.6983 35.6025 31.7313L34.7117 35.0383V35.1505C34.7315 35.1835 34.7447 35.2495 34.7645 35.2627C34.7843 35.2957 34.8371 35.3221 34.8635 35.3419C34.8833 35.3749 34.9427 35.3815 34.9757 35.3815H36.3876C36.4206 35.3815 36.48 35.3749 36.4998 35.3551C36.5526 35.3353 36.6053 35.3089 36.6383 35.2759C36.6713 35.2429 36.7241 35.1769 36.7505 35.1505C36.7835 35.0977 36.8099 35.0581 36.8297 35.0119L37.7204 31.6785C37.7204 31.6455 37.7402 31.5861 37.7204 31.5531C37.7204 31.5201 37.6874 31.4739 37.6676 31.4409C37.6478 31.4211 37.6148 31.3815 37.5686 31.3617C37.5488 31.3419 37.5027 31.3221 37.4565 31.3221H36.0181V31.3287Z" fill="#00C297"/>
<path d="M46.522 28.5547L46.1261 30.0068H48.5805L48.2374 31.3072H45.783L44.7801 35.0498C44.7603 35.0828 44.7735 35.1488 44.7537 35.1752C44.7735 35.2082 44.7735 35.2742 44.7933 35.2874C44.8131 35.3204 44.8527 35.3468 44.8857 35.3666C44.9385 35.393 44.9979 35.4062 45.077 35.4062H47.3137L46.9574 36.7065H42.8865C42.715 36.7065 42.55 36.6867 42.4181 36.6537C42.2861 36.6207 42.1608 36.5613 42.0618 36.4887C41.9892 36.4359 41.9364 36.3699 41.8836 36.2973C41.8111 36.2247 41.7649 36.1653 41.7319 36.0795C41.7121 35.9937 41.6725 35.8881 41.6527 35.789C41.6329 35.69 41.6263 35.5712 41.6263 35.4722C41.6461 35.393 41.6329 35.3138 41.6527 35.228C41.6725 35.1554 41.6989 35.0432 41.7187 34.9706L42.6952 31.3072H41.3756L41.7187 30.0068H43.0185L43.4144 28.5547H46.522V28.5547Z" fill="#007E94"/>
<path d="M57.138 30.0156C57.2568 30.0156 57.3821 30.0222 57.4811 30.042C57.5801 30.0618 57.7054 30.1014 57.7846 30.1212C57.8836 30.141 57.9628 30.2004 58.0155 30.2467C58.0881 30.2995 58.1541 30.3919 58.2069 30.4645C58.2597 30.5371 58.2795 30.6559 58.3059 30.7549C58.3256 30.8737 58.352 31.0123 58.3322 31.1641C58.3322 31.2434 58.3256 31.3556 58.2927 31.4546C58.2597 31.5536 58.2465 31.6922 58.2135 31.811L57.3624 34.9793C57.3294 35.0982 57.2766 35.2434 57.2502 35.349C57.1974 35.4678 57.1512 35.58 57.0984 35.679C57.0457 35.7978 56.9665 35.91 56.8807 36.0091C56.8081 36.1081 56.7224 36.1939 56.6366 36.2665C56.564 36.3391 56.465 36.4051 56.3793 36.4579C56.2935 36.5107 56.1681 36.5767 56.089 36.5965C55.9702 36.6295 55.8382 36.6691 55.7195 36.6823C55.5875 36.7021 55.4556 36.7087 55.3368 36.7087H50.1112C49.9925 36.7087 49.8473 36.7021 49.7286 36.6691C49.6098 36.6493 49.4844 36.5899 49.3855 36.5437C49.2997 36.4909 49.2205 36.4381 49.1677 36.3655C49.0952 36.2929 49.0358 36.2203 49.0028 36.1345C48.983 36.0619 48.9434 35.9563 48.9236 35.8572C48.9038 35.7582 48.8906 35.646 48.9104 35.514C48.9104 35.4414 48.9038 35.382 48.9236 35.2962C48.9434 35.2236 48.9566 35.1114 48.9896 35.0322L49.8407 31.7978C49.8737 31.679 49.9133 31.5668 49.9397 31.4678C49.9595 31.3688 50.0255 31.2566 50.0519 31.1773C50.1244 31.0453 50.2102 30.9067 50.2828 30.7813C50.3686 30.6625 50.4477 30.5701 50.5533 30.4909C50.6325 30.4051 50.7644 30.3127 50.8436 30.2599C50.9426 30.207 51.0811 30.141 51.1603 30.1212C51.2791 30.1014 51.3912 30.0618 51.4902 30.042C51.5892 30.0222 51.7079 30.0156 51.8069 30.0156H57.138V30.0156ZM53.2585 31.3424C53.2321 31.3424 53.1991 31.3556 53.1661 31.382C53.1331 31.415 53.0803 31.4546 53.0671 31.4744C53.0473 31.5074 53.0011 31.5536 53.0011 31.5734C52.9813 31.6064 52.9681 31.6658 52.9483 31.6856L52.0708 34.9793C52.051 35.0322 52.051 35.085 52.0708 35.118C52.0906 35.1708 52.1038 35.2236 52.1236 35.2434C52.1434 35.2764 52.183 35.3226 52.216 35.3424C52.2622 35.3688 52.3018 35.382 52.3413 35.382H53.8061C53.8589 35.382 53.8919 35.3754 53.9446 35.3424C53.9974 35.3226 54.0634 35.283 54.0964 35.2566C54.1492 35.2368 54.1888 35.1708 54.2086 35.1444C54.2613 35.0916 54.2877 35.0388 54.2877 35.0057L55.1784 31.6988C55.1982 31.6658 55.1916 31.6064 55.1916 31.5734C55.1718 31.5404 55.1455 31.4876 55.1257 31.4612C55.1059 31.4414 55.0663 31.4018 55.0399 31.382C55.0069 31.3622 54.9541 31.3424 54.9409 31.3424H53.2585Z" fill="#007E94"/>
<path d="M63.7094 27.5723L63.0628 30.0013H64.7651H66.4673C66.6389 30.0013 66.7774 30.0079 66.8632 30.0277C66.9622 30.0475 67.0479 30.0607 67.0809 30.0805C67.1337 30.1003 67.1733 30.1201 67.1931 30.1201C67.1931 30.1399 67.1997 30.1465 67.1799 30.1465C67.2591 30.1795 67.3646 30.2455 67.4438 30.3116C67.5164 30.3842 67.5626 30.47 67.6352 30.5426C67.7341 30.7274 67.8133 30.9452 67.8133 31.1762C67.8133 31.2951 67.8199 31.4403 67.7869 31.5591C67.7869 31.6779 67.7605 31.8363 67.7077 31.9947L66.9688 34.767C66.916 34.9188 66.8698 35.0772 66.817 35.2093C66.7642 35.3413 66.6983 35.4733 66.6257 35.5789C66.5267 35.7109 66.4277 35.8561 66.3486 35.9617C66.2298 36.0806 66.1242 36.1862 66.0055 36.2522C65.9197 36.338 65.7877 36.404 65.6888 36.4568C65.57 36.5096 65.4644 36.5756 65.3457 36.5954C65.1939 36.6482 65.062 36.6812 64.9762 36.6812C64.8904 36.701 64.8046 36.7076 64.7717 36.7076H64.6595H61.4265H58.1935L60.6216 27.5723H63.7094ZM63.076 31.3149C63.0232 31.3149 62.9836 31.3281 62.9374 31.3545C62.8649 31.3875 62.8055 31.4403 62.7725 31.4667C62.7197 31.4997 62.6801 31.5525 62.6471 31.6053C62.6141 31.6581 62.5878 31.7175 62.568 31.7703L61.7036 34.9782C61.6838 35.031 61.6838 35.0706 61.7036 35.1169C61.7234 35.1697 61.7498 35.2225 61.7696 35.2423C61.7894 35.2753 61.8422 35.3215 61.862 35.3413C61.9148 35.3677 61.9609 35.3809 62.0137 35.3809H63.3597C63.3927 35.3809 63.4521 35.3743 63.4851 35.3413C63.5576 35.3215 63.617 35.2687 63.65 35.2423C63.683 35.2093 63.7292 35.1433 63.749 35.1169C63.7952 35.064 63.8216 35.0178 63.8282 34.965L64.6925 31.7571C64.7123 31.7241 64.7057 31.6713 64.7057 31.6185C64.6859 31.5657 64.6727 31.4997 64.6529 31.4667C64.6331 31.4337 64.5935 31.3809 64.5605 31.3677C64.5275 31.3479 64.4682 31.3149 64.422 31.3149H63.076V31.3149Z" fill="#007E94"/>
<path d="M76.1334 29.9883C76.2851 29.9883 76.4303 30.0081 76.5688 30.0279C76.6876 30.0609 76.8328 30.1005 76.9515 30.1665C77.0373 30.2193 77.1165 30.2985 77.1692 30.3711C77.2418 30.4503 77.288 30.5625 77.321 30.6615C77.3408 30.7342 77.3738 30.8464 77.3738 30.9256C77.3738 31.0048 77.3804 31.1302 77.3606 31.2292C77.3408 31.3612 77.3012 31.5328 77.2748 31.6847L76.6282 34.0609H71.4555L71.2641 34.787C71.2443 34.8596 71.2443 34.919 71.2641 34.9916C71.2641 35.0642 71.3235 35.1302 71.3565 35.183C71.3895 35.2358 71.4555 35.3018 71.5082 35.3216C71.561 35.3546 71.627 35.3744 71.6996 35.3744H75.3218L74.9655 36.6814H69.232C69.1132 36.6814 68.968 36.6748 68.8493 36.655C68.7305 36.6352 68.6052 36.5758 68.5062 36.5296C68.4204 36.4966 68.328 36.424 68.2753 36.3513C68.2225 36.2787 68.1697 36.1731 68.1367 36.0741C68.1037 36.0015 68.0839 35.9091 68.0839 35.8101V35.4537C68.1037 35.3744 68.1037 35.2688 68.1235 35.1896C68.1565 35.0906 68.1697 34.9718 68.1895 34.8728L68.9878 31.8563C69.0208 31.7573 69.0604 31.6451 69.0802 31.5658C69.1132 31.48 69.1594 31.381 69.1792 31.3018C69.2518 31.1698 69.3111 31.0312 69.3837 30.9058C69.4563 30.787 69.5553 30.655 69.6278 30.5757C69.7268 30.4767 69.8324 30.3645 69.9313 30.2985C70.0303 30.2259 70.1689 30.1533 70.2876 30.1203C70.3866 30.0873 70.5251 30.0477 70.6439 30.0279C70.7627 30.0081 70.9012 29.9883 71.0002 29.9883H76.1334ZM73.9891 32.7804L74.2662 31.7243C74.286 31.6913 74.2794 31.6253 74.2794 31.5988C74.2596 31.546 74.2464 31.4932 74.2266 31.4602C74.2068 31.4272 74.1672 31.3876 74.1342 31.3612C74.1012 31.3414 74.0484 31.3216 74.022 31.3216H72.5441C72.4913 31.3216 72.4517 31.3414 72.4188 31.3612C72.366 31.3942 72.3132 31.4338 72.2802 31.4536C72.2472 31.4866 72.1944 31.546 72.168 31.579C72.1218 31.6319 72.0955 31.6715 72.0889 31.7177L71.8117 32.787H73.9891V32.7804Z" fill="#007E94"/>
</svg>
