<svg width="58" height="51" viewBox="0 0 58 51" fill="none" xmlns="http://www.w3.org/2000/svg">
<path d="M11.2285 31.992H7.75797V39.6488H4.45242V31.992H0.995117V30.8633H11.2285V31.992Z" fill="#007E94"/>
<path d="M27.0371 37.9194C27.0371 39.0151 26.2981 39.6488 24.8202 39.6488H18.0969C16.6322 39.6488 15.88 39.0151 15.88 37.9194V32.5927C15.88 31.5167 16.6256 30.8633 18.0969 30.8633H24.8202C26.2981 30.8633 27.0371 31.4903 27.0371 32.5927V37.9194ZM23.7315 32.4607C23.7315 32.1438 23.5336 31.992 23.1311 31.992H19.7926C19.3901 31.992 19.1922 32.1438 19.1922 32.4607V38.058C19.1922 38.4013 19.3901 38.5267 19.7926 38.5267H23.1311C23.5336 38.5267 23.7315 38.3749 23.7315 38.058V32.4607Z" fill="#007E94"/>
<path d="M43.0699 38.025C43.0699 38.9557 42.3573 39.6488 40.8926 39.6488H32.1371V30.8633H40.8926C42.2254 30.8633 43.0699 31.4375 43.0699 32.5135V33.8732C43.0237 34.8567 42.5025 35.0679 40.5693 35.1471V35.1867C42.5157 35.2858 43.0171 35.4508 43.0699 36.4805V38.025ZM39.8699 32.5663C39.8699 32.1636 39.7182 31.992 3.2959 31.992H35.4427V34.6587H39.2959C39.705 34.6587 39.8699 34.4739 39.8699 34.0976V32.5663ZM39.8699 36.3485C39.8699 35.9458 39.7182 35.7742 39.2959 35.7742H35.4427V38.5201H39.2959C39.705 38.5201 39.8699 38.3353 39.8699 37.959V36.3485Z" fill="#007E94"/>
<path d="M57.4733 39.6488H48.1703V30.8633H57.4733V31.992H51.4758V34.6587H56.9257V35.7808H51.4758V38.5201H57.4733V39.6488Z" fill="#007E94"/>
<path d="M24.4373 50.1119H23.5333V45.2934C23.5333 44.9963 23.4476 44.8445 23.0913 44.8445H20.9602C20.6369 44.8445 20.5313 44.9435 20.5313 45.2472V50.1053H19.634V44.2637H23.21C23.5201 44.2637 23.7643 44.2835 23.9424 44.3099C24.1206 44.3429 24.2525 44.4287 24.3251 44.5541C24.3977 44.6861 24.4439 44.9171 24.4439 45.2538V50.1119H24.4373Z" fill="#00C398"/>
<path d="M31.583 44.7455H27.9409V46.9501H31.2267V47.4254H27.9409V50.1053H27.0106V44.2637H31.583V44.7455Z" fill="#00C398"/>
<path d="M38.8403 44.7448H36.861V50.1112H35.9307V44.7448H33.9513V44.2695H38.8403V44.7448Z" fill="#00C398"/>
<path d="M32.3152 2.57127C32.0909 2.57127 31.9392 2.41286 31.9392 2.17524V0.40625H22.1874L15.1409 12.6175L19.9969 21.0334V11.3898H21.9565C22.1808 11.3898 22.3326 11.5416 22.3326 11.766L22.326 12.8023H23.3883C23.606 12.8023 23.7841 12.9806 23.7841 13.1984V14.3931H24.9718C25.2093 14.3931 25.3676 14.5449 25.3676 14.7693V15.9905H26.4695V5.97723H29.7223H30.4612V4.86832H32.0843V5.97723H31.5631H35.06V2.57788H32.3152V2.57127Z" fill="#00C297"/>
<path d="M37.5341 2.57031H37.422V12.3459C37.422 12.6232 37.1976 12.8476 36.9205 12.8476H35.0665V8.31952H28.8249V11.039H32.1766V12.9994C32.1766 13.2238 32.0183 13.3756 31.7807 13.3756H28.8249V17.9103C28.8249 17.9169 28.8249 17.9235 28.8249 17.9301V19.5011C28.8249 19.7387 28.6731 19.8971 28.4488 19.8971H26.4892V18.1083H25.0047V16.544H23.441V14.9268H22.3259V24.8278H36.2805L43.3271 12.6166L37.5341 2.57031Z" fill="#007E94"/>
</svg>
