<svg width="90" height="43" viewBox="0 0 90 43" fill="none" xmlns="http://www.w3.org/2000/svg"><path fill-rule="evenodd" clip-rule="evenodd" d="M33.796 10.856c.214 2.316.605 4.733 1.757 6.812.059.101-2.528 3.908-2.528 3.908l3.169-2.892 1.08-1.028.38.362.795-.757a8.296 8.296 0 0 1-2.03-5.422c0-2.192.878-4.395 2.635-6.067 1.756-1.671 4.07-2.507 6.373-2.507s4.617.836 6.374 2.507c1.756 1.672 2.635 3.875 2.635 6.067 0 2.191-.879 4.394-2.635 6.066-1.757 1.672-4.071 2.508-6.374 2.508-2.017 0-4.047-.644-5.697-1.932l-.795.757.38.361-4.973 4.733-2.041-1.954s1.554 2.146 2.183 2.745c.63.599 1.2-.237 1.2-.237L39.03 21.7c2.125 1.91 4.237 2.983 6.635 4.327 3.738-2.101 8.213-4.914 10.112-8.37 1.151-2.08 1.543-4.497 1.756-6.813.273-2.937.285-5.998.273-9.003-2.243-.282-4.438-.78-6.682-1.208C49.332.293 47.493 0 45.664 0c-.474 0-.949.023-1.424.056-3.655.272-7.097 1.31-10.717 1.774-.012 3.016 0 6.077.273 9.026Z" fill="#4BBD99"/><path fill-rule="evenodd" clip-rule="evenodd" d="M38.674 11.828c0 1.649.665 3.287 1.982 4.552 .318 1.254 3.05 1.887 4.784 1.887a6.95 6.95 0 0 0 4.783-1.887c1.317-1.254 1.982-2.903 1.982-4.552 0-1.65-.665-3.299-1.982-4.553-1.318-1.254-3.05-1.886-4.783-1.886a6.95 6.95 0 0 0-4.784 1.886c-1.329 1.265-1.982 2.903-1.982 4.553Z" fill="#007C91"/><path d="M.926 31.02h10.287l-.53 1.887H7.6l-2.626 9.326h-4.1L3.5 32.907H.396l.53-1.887Zm19.681 2.994c.155 0 .311.01.446.03.135.02.29.069.395.088.134.02.228.09.29.158.094.06.177.178.25.267.072.089.093.237.134.356.021.148.052.316.031.504 0 .098-.01.237-.051.355-.042.129-.052.287-.094.435l-1.1 3.892c-.042.149-.104.327-.146.455-.062.148-.134.277-.197.405-.062.148-.176.277-.28.405a1.873 1.873 0 0 1-.311.316 1.974 1.974 0 0 1-.333.237c-.103.06-.27.148-.373.168-.156.04-.322.09-.478.109a4.3 4.3 0 0 1-.488.03h-6.747c-.155 0-.332-.01-.488-.05a1.408 1.408 0 0 1-.446-.158c-.104-.06-.218-.128-.28-.217a.888.888 0 0 1-.218-.277c-.021-.089-.073-.217-.104-.346-.02-.128-.042-.257-.02-.425 0-.088-.011-.167.02-.266.02-.09.041-.227.083-.326l1.1-3.962c.042-.148.094-.287.135-.405.021-.128.104-.257.146-.356.093-.168.207-.336.3-.484a1.66 1.66 0 0 1 .343-.355c.104-.1.27-.218.374-.277.135-.06.3-.148.415-.168.156-.02.29-.07.426-.089.135-.02.28-.03.415-.03h6.85v-.02Zm-5.003 1.62a.225.225 0 0 0-.115.05 1.153 1.153 0 0 1-.135.108c-.02.04-.083.099-.083.128-.02.04-.041.119-.062.139l-1.131 4.04c-.021.06-.021.129 0 .168.02.06.041.129.062.158a.45.45 0 0 0 .114.129c.062.03.104.05.166.05h1.89a.3.3 0 0 0 .176-.05.623.623 0 0 0 .197-.109c.062-.02.125-.099.145-.138.063-.06.094-.129.094-.168l1.152-4.06c.02-.04.02-.12.02-.159-.02-.04-.062-.098-.082-.138a1.351 1.351 0 0 0-.114-.099c-.042-.02-.104-.05-.135-.05h-2.16Zm12.643-4.614-.841 2.983h4.4c.219 0 .406.01.51.03.134.02.238.04.28.06.062.02.124.049.145.049 0 .02.01.03-.02.03.103.039.238.118.342.207.093.089.156.197.25.276.134.228.227.494.227.78 0 .15.01.317-.03.465 0 .148-.032.346-.094.534l-.955 3.408a10.91 10.91 0 0 1-.197.544 2.162 2.162 0 0 1-.25.454c-.134.168-.259.346-.363.464-.155.149-.29.277-.446.356-.104.099-.28.188-.415.247-.156.06-.291.148-.447.168-.197.06-.373.109-.477.109-.104.02-.218.03-.26.03h-8.48L24.26 31h3.986v.02Zm-.82 4.584a.362.362 0 0 0-.177.05.79.79 0 0 0-.218.138.655.655 0 0 0-.166.167c-.041.06-.073.139-.104.208l-1.11 3.932a.233.233 0 0 0 0 .168c.02.06.051.128.082.158.021.04.094.099.115.129.062.03.135.049.197.049h1.744c.041 0 .124-.01.166-.05a.495.495 0 0 0 .218-.128 1.82 1.82 0 0 0 .135-.158c.052-.06.093-.128.093-.188l1.121-3.932c.021-.04.021-.108.021-.168-.02-.059-.041-.148-.062-.187a.45.45 0 0 0-.114-.129c-.042-.02-.115-.06-.177-.06h-1.764Zm16.784-1.62c.197 0 .384.02.56.05.156.04.333.089.489.168.103.06.218.168.28.247.093.099.156.237.197.355.02.09.062.228.062.326 0 .1.01.247-.02.376-.021.168-.073.375-.115.563l-.84 2.924h-6.675l-.249.89a.496.496 0 0 0 0 .247c0 .088.073.167.114.237a.52.52 0 0 0 .197.168c.063.04.156.059.25.059h4.67l-.456 1.61h-7.401c-.156 0-.332-.01-.488-.03a1.406 1.406 0 0 1-.446-.157.8.8 0 0 1-.302-.218 1.382 1.382 0 0 1-.176-.346.8.8 0 0 1-.062-.326v-.434c.02-.1.02-.227.052-.326.041-.129.062-.267.083-.395l1.038-3.705c.041-.129.093-.257.114-.356.041-.099.104-.227.135-.326.093-.168.176-.336.26-.484.093-.148.217-.306.31-.405.136-.129.26-.257.395-.346.135-.089.301-.178.457-.217.135-.04.301-.09.457-.109.155-.02.332-.05.456-.05h6.654v.01Zm-2.782 3.419.364-1.294c.02-.04.02-.119.02-.159-.02-.059-.041-.128-.062-.167-.02-.04-.073-.09-.114-.129-.042-.02-.104-.05-.145-.05h-1.9a.298.298 0 0 0-.166.05c-.062.04-.135.089-.177.109-.041.04-.103.118-.145.158-.062.06-.093.118-.093.168l-.364 1.314h2.782Z" fill="#007C91"/><path d="m57.871 31.049-.529 1.837h-5.501c-.042 0-.125.01-.146.03-.062.02-.135.06-.176.08-.042.039-.094.088-.135.108-.042.04-.083.099-.083.138l-.229.83c-.02.04-.02.089-.02.109 0 .04.02.099.052.128.02.04.072.119.114.139a.317.317 0 0 0 .176.059h3.613c.135 0 .29.01.446.03.156.02.3.069.425.088.135.04.27.109.374.168.104.06.239.168.332.247.063.09.135.178.166.267.042.099.094.207.115.316.02.099.02.247.02.376-.02.128-.041.286-.083.454l-.965 3.418c-.02.1-.073.247-.114.346a1.592 1.592 0 0 1-.135.326 5.178 5.178 0 0 1-.26.435 4.195 4.195 0 0 1-.311.375 3.226 3.226 0 0 1-.8.573c-.197.09-.383.178-.601.208-.198.04-.416.079-.644.079h-7.775l.509-1.858h5.48c.063 0 .136-.01.198-.03a.702.702 0 0 0 .218-.078.794.794 0 0 0 .166-.109c.041-.04.093-.108.093-.168l.28-.988a.208.208 0 0 0 0-.158c-.02-.04-.062-.089-.093-.128a.539.539 0 0 0-.114-.09.55.55 0 0 0-.176-.029h-3.976c-.135 0-.28-.01-.405-.03a1.83 1.83 0 0 1-.342-.088c-.104-.02-.208-.1-.301-.139-.094-.059-.146-.138-.218-.207a1.347 1.347 0 0 1-.146-.267.865.865 0 0 1-.062-.346c-.02-.207-.01-.474.083-.76l.986-3.498c.042-.128.083-.267.145-.385.042-.129.125-.287.218-.405.063-.129.177-.267.26-.395.104-.129.228-.257.363-.356.094-.099.218-.178.332-.267a2.61 2.61 0 0 1 .395-.217c.135-.04.28-.089.415-.128.135-.02.301-.05.457-.05h7.91v.01Zm8.886 2.965-.446 1.61h-3.052c-.094 0-.187.04-.28.06-.094.039-.187.098-.28.157-.094.06-.177.139-.25.208-.041.089-.114.168-.114.237l-1.049 3.715a.388.388 0 0 0 0 .217.442.442 0 0 0 .115.207c.062.06.145.12.218.139.062.04.155.05.249.05h3.03l-.456 1.62h-5.48c-.219 0-.437-.02-.592-.06-.177-.02-.343-.108-.478-.168-.104-.089-.218-.178-.311-.276-.094-.09-.166-.237-.229-.356-.02-.089-.062-.217-.083-.346a1.152 1.152 0 0 1-.03-.375c0-.129.01-.267.03-.395 0-.129.021-.267.052-.386l.966-3.418c.041-.148.104-.287.166-.455.062-.148.176-.316.26-.464.093-.148.217-.306.31-.454.136-.149.28-.277.416-.405.135-.09.28-.198.405-.277.155-.089.322-.168.477-.237.104-.02.26-.07.395-.09.135-.019.3-.029.425-.029h5.616v-.03Zm9.155 8.179h-3.508v-.88c0 .06-.052.13-.083.159-.042.04-.104.118-.135.138a.818.818 0 0 1-.166.158c-.042.04-.125.119-.166.138-.135.1-.29.178-.447.218-.135.02-.3.059-.456.059h-3.664c-.198 0-.374-.02-.51-.05a1.277 1.277 0 0 1-.404-.138 1.088 1.088 0 0 1-.301-.237 1.37 1.37 0 0 1-.166-.346 1.513 1.513 0 0 1-.062-.454c0-.168.01-.356.03-.514.022-.158.073-.365.094-.533.042-.168.094-.356.135-.504.02-.148.094-.316.135-.464.042-.149.125-.336.166-.504.062-.168.135-.316.228-.484.063-.149.187-.326.28-.455a2.14 2.14 0 0 1 .395-.395c.156-.128.332-.237.509-.296.156-.06.322-.11.488-.139.176-.03.353-.05.54-.05h4.069a.619.619 0 0 0 .249-.058c.093-.02.176-.11.26-.168a.459.459 0 0 0 .145-.158c.041-.06.072-.129.093-.168a.29.29 0 0 0 0-.188.39.39 0 0 0-.083-.158c-.042-.04-.083-.09-.145-.129a.362.362 0 0 0-.177-.049h-4.443l.447-1.61h6.58c.219 0 .437.02.603.049a2.7 2.7 0 0 1 .457.168c.135.06.27.178.363.286.093.11.176.247.218.376.062.128.093.267.114.395.02.148.02.287.02.435 0 .188-.02.405-.062.593-.041.187-.062.395-.134.563l-1.506 5.394Zm-2.854-3.952h-1.941c-.094 0-.198.04-.26.06a1.34 1.34 0 0 0-.28.157c-.062.06-.156.139-.197.208a1.432 1.432 0 0 0-.135.237l-.332 1.176c-.021.04-.021.118-.021.158.02.059.02.128.052.168.041.04.093.118.166.138.041.04.135.06.176.06h1.588c.042 0 .115-.01.177-.05.093-.02.166-.099.228-.138a.59.59 0 0 0 .135-.139c.042-.059.094-.128.094-.168l.55-1.867Zm8.096 3.992h-3.986l2.294-8.22h8.387c.415 0 .768.1 1.049.267.26.149.425.366.56.643.042.098.073.237.114.355.021.148.032.287.032.455-.021.168-.01.336-.052.504-.021.167-.073.375-.115.563l-1.525 5.434h-3.976l1.723-6.126c.02-.089.02-.168.02-.207a1.32 1.32 0 0 0-.061-.158.698.698 0 0 0-.146-.11.774.774 0 0 0-.218-.029h-1.713a.664.664 0 0 0-.176.03c-.093.02-.156.07-.197.089-.042.04-.094.079-.166.138a.61.61 0 0 0-.094.218l-1.754 6.154Z" fill="#4BBD99"/></svg>
