<svg width="58" height="51" viewBox="0 0 58 51" fill="none" xmlns="http://www.w3.org/2000/svg">
<path d="M11.0395 31.992H7.56901V39.6488H4.26346V31.992H0.806152V30.8633H11.0395V31.992Z" fill="#007E94"/>
<path d="M26.8482 37.9194C26.8482 39.0151 26.1093 39.6488 24.6313 39.6488H17.9147C16.4499 39.6488 15.6978 39.0151 15.6978 37.9194V32.5927C15.6978 31.5167 16.4433 30.8633 17.9147 30.8633H24.6379C26.1159 30.8633 26.8548 31.4903 26.8548 32.5927V37.9194H26.8482ZM23.5427 32.4607C23.5427 32.1438 23.3447 31.992 22.9423 31.992H19.6037C19.2012 31.992 19.0033 32.1438 19.0033 32.4607V38.058C19.0033 38.4013 19.2012 38.5267 19.6037 38.5267H22.9423C23.3447 38.5267 23.5427 38.3749 23.5427 38.058V32.4607Z" fill="#007E94"/>
<path d="M42.8809 38.025C42.8809 38.9557 42.1683 39.6488 40.7036 39.6488H31.9481V30.8633H40.7036C42.0363 30.8633 42.8809 31.4375 42.8809 32.5135V33.8732C42.8347 34.8567 42.3134 35.0679 40.3803 35.1471V35.1867C42.3266 35.2858 42.8281 35.4508 42.8809 36.4805V38.025ZM39.6809 32.5663C39.6809 32.1636 395291 31.992 39.1069 31.992H35.2537V34.6587H39.1069C39.5159 34.6587 39.6809 34.4739 39.6809 34.0976V32.5663ZM39.6809 36.3485C39.6809 35.9458 39.5291 35.7742 39.1069 35.7742H35.2537V38.5201H39.1069C39.5159 38.5201 39.6809 38.3353 39.6809 37.959V36.3485Z" fill="#007E94"/>
<path d="M57.2843 39.6488H47.9813V30.8633H57.2843V31.992H51.2868V34.6587H56.7367V35.7808H51.2868V38.5201H57.2843V39.6488Z" fill="#007E94"/>
<path d="M19.5372 50.1092H15.0836V44.2676H19.5372V44.7428H16.0139V46.9475H19.3723V47.4227H16.0139V49.634H19.5372V50.1092Z" fill="#00C398"/>
<path d="M25.9043 50.1092H23.2189C22.7768 50.1092 22.4601 50.03 22.2754 49.8716C22.0907 49.7132 21.9983 49.4293 21.9983 49.0201V45.3435C21.9983 44.5448 22.3282 44.2676 23.2189 44.2676H25.9043V44.7428H23.3113C23.0276 44.7428 22.9286 44.8286 22.9286 45.1587V49.2181C22.9286 49.5151 23.0078 49.634 23.3113 49.634H25.9043V50.1092Z" fill="#00C398"/>
<path d="M33.7953 49.0201C33.7953 49.733 33.4127 50.1092 32.5681 50.1092H29.698C28.8403 50.1092 28.4774 49.7132 28.4774 49.0201V45.3435C28.4774 44.624 28.8799 44.2676 29.698 44.2676H32.5681C33.3863 44.2676 33.7953 44.6306 33.7953 45.3435V49.0201ZM32.865 45.1587C32.865 44.822 32.7661 44.7428 32.4823 44.7428H29.7904C29.5067 44.7428 29.4077 44.8286 29.4077 45.1587V49.2181C29.4077 49.5151 29.4869 49.634 29.7904 49.634H32.4823C32.799 49.634 32.865 49.5217 32.865 49.2181V45.1587Z" fill="#00C398"/>
<path d="M41.1521 50.1099H40.2482V45.2914C40.2482 44.9944 40.1624 44.8426 39.8061 44.8426H37.675C37.3517 44.8426 37.2461 44.9416 37.2461 45.2452V50.1033H36.3488V44.2617H39.9249C40.235 44.2617 40.4791 44.2815 40.6573 44.3079C40.8354 44.3409 40.9674 44.4267 41.0399 44.5522C41.1125 44.6842 41.1587 44.9152 41.1587 45.2518V50.1099H41.1521ZM45.0779 50.1099H44.1739V45.2914C44.1739 44.9944 44.0882 44.8426 43.7319 44.8426H41.6008C41.2775 44.8426 41.1719 44.9416 41.1719 45.2452V50.1033H40.2746V44.2617H43.8506C44.1607 44.2617 44.4049 44.2815 44.583 44.3079C44.7612 44.3409 44.8931 44.4267 44.9657 44.5522C45.0383 44.6842 45.0845 44.9152 45.0845 45.2518V50.1099H45.0779Z" fill="#00C398"/>
<path fill-rule="evenodd" clip-rule="evenodd" d="M32.3244 0.558594C25.621 0.558594 20.1711 6.01077 20.1711 12.7501C20.1711 14.9811 20.7847 17.0801 21.8338 18.8755H28.1348V4.99426H41.964C45.6192 4.99426 47.9813 3.25828 47.9813 0.558594H32.3244Z" fill="#00C297"/>
<path fill-rule="evenodd" clip-rule="evenodd" d="M42.8019 6.5332H36.5536C36.4876 7.18667 36.1841 8.4144 34.8382 8.4144C33.0106 8.4144 31.0312 8.4144 31.0312 8.4144V11.1339H36.5668V11.6487C36.5668 11.6487 36.7582 14.5002 34.792 14.5002C32.8192 14.5002 31.0312 14.5002 31.0312 14.5002V17.0877H36.5668V18.2428C36.5668 18.2428 36.7054 20.4805 34.5215 20.4805C32.3376 20.4805 22.7046 20.4805 22.7046 20.4805C19.056 20.4805 16.6873 22.2495 16.6873 24.9095H32.166H32.3442C39.0476 24.9095 44.4975 19.4574 44.4975 12.7511C44.5107 10.4672 43.8839 8.34179 42.8019 6.5332Z" fill="#007E94"/>
</svg>
