<svg width="58" height="52" viewBox="0 0 58 52" fill="none" xmlns="http://www.w3.org/2000/svg">
<path d="M11.0573 32.9803H7.58684V40.6371H4.28128V32.9803H0.823975V31.8516H11.0573V32.9803Z" fill="#007E94"/>
<path d="M26.8658 38.9077C26.8658 40.0034 26.1269 40.6371 24.649 40.6371H17.9257C16.461 40.6371 15.7088 40.0034 15.7088 38.9077V33.5809C15.7088 32.505 16.4544 31.8516 17.9257 31.8516H24.649C26.1269 31.8516 26.8658 32.4786 26.8658 33.5809V38.9077ZM23.5603 33.4489C23.5603 33.1321 23.3624 32.9803 22.9599 32.9803H19.6214C19.2189 32.9803 19.0209 33.1321 19.0209 33.4489V39.0463C19.0209 39.3896 19.2189 39.515 19.6214 39.515H22.9599C23.3624 39.515 23.5603 39.3632 23.5603 39.0463V33.4489Z" fill="#007E94"/>
<path d="M42.8987 39.0133C42.8987 39.944 42.1861 40.6371 40.7213 40.6371H31.9659V31.8516H40.7213C42.0541 31.8516 42.8987 32.4258 42.8987 33.5017V34.8615C42.8525 35.845 42.3312 36.0562 40.398 36.1354V36.175C42.3444 36.274 42.8459 36.4391 42.8987 37.4688V39.0133ZM39.6987 33.5546C39.6987 33.1519 39.5469 32.903 39.1247 32.9803H35.2715V35.647H39.1247C39.5337 35.647 39.6987 35.4621 39.6987 35.0859V33.5546ZM39.6987 37.3367C39.6987 36.9341 39.5469 36.7625 39.1247 36.7625H35.2715V39.5084H39.1247C39.5337 39.5084 39.6987 39.3236 39.6987 38.9473V37.3367Z" fill="#007E94"/>
<path d="M57.3086 40.6371H48.0056V31.8516H57.3086V32.9803H51.3111V35.647H56.761V36.7691H51.3111V39.5084H57.3086V40.6371Z" fill="#007E94"/>
<path d="M21.5608 51.1014H18.8754C18.4333 51.1014 18.1166 51.0222 17.9319 50.8638C17.7472 50.7053 17.6548 50.4215 17.6548 50.0123V46.3357C17.6548 45.537 17.9847 45.2598 18.8754 45.2598H21.5608V45.735H18.9678C18.6841 45.735 18.5851 45.8208 18.5851 46.1509V50.2103C18.5851 50.5073 18.6643 50.6261 18.9678 50.6261H21.5608V51.1014Z" fill="#00C398"/>
<path d="M29.4518 50.0123C29.4518 50.7251 29.0691 51.1014 28.2246 51.1014H25.3545C24.4968 51.1014 24.1339 50.7053 24.1339 50.0123V46.3357C24.1339 45.6162 24.5364 45.2598 25.3545 45.2598H28.2246C29.0427 45.2598 29.4518 45.6228 29.4518 46.3357V50.0123ZM28.5215 46.1575C28.5215 45.8208 28.4225 45.7416 28.1388 45.7416H25.4469C25.1632 45.7416 25.0642 45.8274 25.0642 46.1575V50.2169C25.0642 50.5139 25.1434 50.6327 25.4469 50.6327H28.1388C28.4555 50.6327 28.5215 50.5139 28.5215 50.2169V46.1575Z" fill="#00C398"/>
<path d="M33.0212 51.1014H32.0909V45.2598H33.0212V51.1014Z" fill="#00C398"/>
<path d="M40.4771 51.1014H39.5732V46.2829C39.5732 45.9859 39.4874 45.834 39.1311 45.834H37C36.6767 45.834 36.5711 45.933 36.5711 46.2367V51.1014H35.6738V45.2598H39.2499C39.56 45.2598 39.8041 45.2796 39.9823 45.306C40.1604 45.339 40.2924 45.4248 40.365 45.5502C40.4375 45.6822 40.4837 45.9132 40.4837 46.2499V51.1014H40.4771Z" fill="#00C398"/>
<path d="M34.4666 19.4424C33.0414 20.7361 31.1478 21.5216 29.0761 21.5216C24.6357 21.5216 21.0266 17.911 21.0266 13.4687V3.13867C20.611 3.46871 20.2019 3.81855 19.8192 4.20799C14.7124 9.31692 14.7124 17.6272 19.8192 22.7361C24.8468 27.7658 32.9755 27.845 38.102 22.9671L34.4666 19.4424Z" fill="#00C398"/>
<path d="M32.3948 17.1263C32.441 17.0801 32.4938 17.0405 32.54 16.9943C32.6654 16.8755 32.7907 16.7501 32.9095 16.6247L38.7223 22.2815L38.7289 22.2881C43.2089 17.3838 43.288 9.88539 38.9598 4.88867L34.7701 9.0801L34.1103 8.42003C32.7644 7.07349 30.9763 6.32762 29.0761 6.32762C27.4728 6.32762 25.9619 6.84908 24.7017 7.83918C24.7017 7.83918 24.3388 8.1362 24.1277 8.25501V11.8194H31.9462L28.8914 14.9217H24.352C24.9788 16.9349 26.8592 18.4069 29.0827 18.4069C30.2308 18.4069 31.2864 18.0108 32.1244 17.3574C32.2101 17.2914 32.3025 17.2121 32.3948 17.1263Z" fill="#007E94"/>
<path d="M34.7635 7.77292C33.3054 6.31417 31.293 5.40987 29.0761 5.40987C27.2089 5.40987 25.4935 6.05014 24.1277 7.11945V1.33725C28.8584 -0.590155 34.4996 0.366943 38.3396 4.20194L36.5581 5.98414L34.7635 7.77292Z" fill="#00C398"/>
</svg>
