<svg width="57" height="51" viewBox="0 0 57 51" fill="none" xmlns="http://www.w3.org/2000/svg">
<path d="M10.7487 32.8338H7.27823V40.4906H3.97268V32.8338H0.515381V31.7051H10.7487V32.8338Z" fill="#007E94"/>
<path d="M26.5573 38.7612C26.5573 39.8569 25.8184 40.4906 24.3404 40.4906H17.6172C16.1524 40.4906 15.4003 39.8569 15.4003 38.7612V33.4345C15.4003 32.3585 16.1458 31.7051 17.6172 31.7051H24.3404C25.8184 31.7051 26.5573 32.3321 26.5573 33.4345V38.7612ZM23.2518 33.3024C23.2518 32.9856 23.0539 32.8338 22.6514 32.8338H19.3128C18.9104 32.8338 18.7124 32.9856 18.7124 33.3024V38.8998C18.7124 39.2431 18.9104 39.3685 19.3128 39.3685H22.6514C23.0539 39.3685 23.2518 39.2167 23.2518 38.8998V33.3024Z" fill="#007E94"/>
<path d="M42.5902 38.8668C42.5902 39.7975 41.8776 40.4906 40.4129 40.4906H31.6575V31.7051H40.4129C41.7456 31.7051 42.5902 32.2793 42.5902 33.3553V34.715C42.544 35.6985 42.0228 35.9097 40.0896 35.9889V36.0285C42.036 36.1275 42.5374 36.2926 42.5902 37.3223V38.8668ZM39.3902 33.4081C39.3902 33.0054 39.384 32.8338 38.8162 32.8338H34.963V35.5005H38.8162C39.2253 35.5005 39.3902 35.3157 39.3902 34.9394V33.4081ZM39.3902 37.1903C39.3902 36.7876 39.2384 36.616 38.8162 36.616H34.963V39.3619H38.8162C39.2253 39.3619 39.3902 39.1771 39.3902 38.8008V37.1903Z" fill="#007E94"/>
<path d="M57 40.4906H47.697V31.7051H57V32.8338H51.0026V35.5005H56.4524V36.6226H51.0026V39.3685H57V40.4906Z" fill="#007E94"/>
<path d="M17.7688 50.951H16.911V50.5681H16.8912C16.8715 50.7134 16.8319 50.819 16.7527 50.8718C16.6801 50.9246 16.535 50.951 16.3172 50.951H13.6451C13.2426 50.951 12.9523 50.885 12.7808 50.753C12.6092 50.6144 12.5234 50.3701 12.5234 50.0137V46.1193C12.5234 45.3668 12.8006 45.1094 13.6187 45.1094H17.617V45.5252H13.843C13.5593 45.5252 13.4603 45.6176 13.4603 45.9477V50.0599C13.4603 50.3569 13.5395 50.4757 13.843 50.4757H16.4426C16.6075 50.4757 16.7131 50.4493 16.7659 50.3899C16.8187 50.3305 16.8451 50.2117 16.8451 50.0335V47.9345H14.8327V47.4592H17.7754V50.951H17.7688Z" fill="#00C398"/>
<path d="M26.6956 50.951H25.6927L24.8416 49.1622H21.7208L20.863 50.951H20.3352L23.1327 45.1094H23.8387L26.6956 50.951ZM24.6239 48.6869L23.2647 45.9147L21.9319 48.6869H24.6239Z" fill="#00C398"/>
<path d="M33.9603 50.9517H33.0564V46.1332C33.0564 45.8362 32.9706 45.6844 32.6143 45.6844H30.4832C30.1599 45.6844 30.0543 45.7834 30.0543 46.087V50.9451H29.157V45.1035H32.7331C33.0432 45.1035 33.2873 45.1233 33.4654 45.1497C33.6436 45.1827 33.7756 45.2685 33.8481 45.3939C33.9207 45.526 33.9669 45.757 33.9669 46.0936V50.9517H33.9603ZM37.8795 50.9517H36.9755V46.1332C36.9755 45.8362 36.8897 45.6844 36.5335 45.6844H34.4023C34.079 45.6844 33.9735 45.7834 33.9735 46.087V50.9451H33.0762V45.1035H36.6523C36.9624 45.1035 37.2065 45.1233 37.3846 45.1497C37.5628 45.1827 37.6947 45.2685 37.7673 45.3939C37.8398 45.526 37.8861 45.757 37.8861 46.0936V50.9517H37.8795Z" fill="#00C398"/>
<path d="M44.9853 50.951H40.5317V45.1094H44.9853V45.5846H41.4621V47.7893H44.8204V48.2645H41.4621V50.4757H44.9853V50.951Z" fill="#00C398"/>
<path fill-rule="evenodd" clip-rule="evenodd" d="M21.1337 4.71519L19.2269 2.84059L29.3679 1.13761C29.9155 1.0452 30.4697 0.965994 31.0239 0.913188C31.4726 0.873584 31.9147 0.84718 32.3633 0.880183C33.1749 0.939589 33.9534 1.18382 34.5802 1.71187C35.141 2.18052 35.5105 2.80759 35.7019 3.51386C35.7876 3.81749 35.8272 4.12772 35.8536 4.44455C36.3155 4.66238 36.7509 4.92641 37.16 5.23004C38.1959 6.00892 39.1855 6.88021 40.0499 7.85051C40.393 8.23335 40.7361 8.64259 41.0066 9.08484L41.409 9.73171L41.1715 10.4578C40.7097 11.8769 40.0961 13.2763 39.4495 14.6228C39.3175 14.9 39.179 15.1773 39.0338 15.4611C39.0338 15.4611 35.1806 23.1443 29.4404 25.9298L28.7543 26.2466L28.0681 25.9298C22.7502 24.1146 18.7518 16.0552 18.0591 14.6294C17.4059 13.2829 16.7922 11.8901 16.337 10.4644L16.1061 9.73831L16.5085 9.09144C16.7791 8.65579 17.1222 8.24655 17.4652 7.85711C18.3296 6.88681 19.3192 6.01552 20.3551 5.23664C20.5992 5.04522 20.8632 4.8736 21.1337 4.71519Z" fill="#00C297"/>
<path fill-rule="evenodd" clip-rule="evenodd" d="M28.7543 3.79601C30.417 3.77621 32.4227 4.02703 33.9996 4.49568C34.9629 4.77951 35.9262 5.18875 36.7312 5.78942C37.7275 6.54189 38.6908 7.38678 39.5221 8.31748C39.8256 8.65412 40.1687 9.06336 40.4062 9.4462L40.6305 9.81583L40.4986 10.2251C40.0565 11.5848 39.4297 13.0106 38.8095 14.2977C37.4965 16.9974 35.8273 19.6905 33.7423 21.8621C32.4161 23.2482 30.8854 24.4562 29.137 25.2614L28.7477 25.4397L28.3584 25.2614C26.61 24.4562 25.0793 23.2416 23.7531 21.8621C21.6681 19.6905 19.9989 16.9974 18.6859 14.2977C18.0657 13.0172 17.4389 11.5848 16.9968 10.2251L16.8649 9.81583L17.0892 9.4462C17.3333 9.05676 17.6764 8.65412 17.9733 8.31748C18.8046 7.38678 19.768 6.54189 20.7642 5.78942C21.5692 5.18215 22.5391 4.77951 23.4958 4.49568C25.0859 4.03363 27.0982 3.77621 28.7543 3.79601Z" fill="#007E94"/>
<path fill-rule="evenodd" clip-rule="evenodd" d="M28.7543 21.6387C29.6121 21.0183 30.8723 19.982 32.6273 18.2526C35.9394 14.9786 37.4636 11.3615 37.866 10.2856L38.8029 10.0941L37.9782 9.96212C37.9782 9.96212 36.3947 8.08092 34.9432 7.09082C32.2512 5.26243 25.2508 5.26243 22.5589 7.09082C21.1073 8.08092 19.5239 9.96212 19.5239 9.96212L18.6991 10.0941L19.6426 10.2856C20.0451 11.3681 21.5692 14.9786 24.8814 18.2526C26.6364 19.9886 27.8966 21.0249 28.7543 21.6387ZM36.177 6.53636C38.671 8.41756 39.6211 9.94232 39.6211 9.94232C39.6211 9.94232 36.0252 21.0645 28.7543 24.4242C21.4834 21.0645 17.8876 9.94232 17.8876 9.94232C17.8876 9.94232 18.8377 8.41756 21.3317 6.53636C24.5185 4.13371 32.9902 4.13371 36.177 6.53636Z" fill="white"/>
<path fill-rule="evenodd" clip-rule="evenodd" d="M28.8732 5.72606H28.8138H28.7544H28.695H28.6357C26.2538 5.73926 23.8852 6.19471 22.559 7.09901C21.1074 8.08911 19.524 9.9703 19.524 9.9703L18.6992 10.1023C21.3384 6.66996 23.7532 5.42243 28.6159 5.20461V5.19141C28.662 5.19141 28.7082 5.198 28.7544 5.198C28.8006 5.198 28.8468 5.19801 28.893 5.19141V5.20461C33.7557 5.42243 36.1705 6.67656 38.8096 10.1023L37.9849 9.9703C37.9849 9.9703 36.4014 8.08911 34.9499 7.09901C33.6237 6.19471 31.255 5.73926 28.8732 5.72606Z" fill="#00C297"/>
<path fill-rule="evenodd" clip-rule="evenodd" d="M28.7543 22.9797C24.4591 20.3394 21.2393 16.412 18.6991 10.0952L17.8876 9.94336C17.8876 9.94336 21.4834 21.0655 28.7543 24.4253C36.0252 21.0655 39.6211 9.94336 39.6211 9.94336L38.8095 10.0952C36.2693 16.4186 32.3436 20.9269 28.7543 22.9797Z" fill="#00C297"/>
<path fill-rule="evenodd" clip-rule="evenodd" d="M23.6805 6.11505L20.7114 3.26356L29.4866 1.8246C30.0211 1.7388 30.5555 1.65959 31.0899 1.61338C31.499 1.57378 31.9081 1.55398 32.3106 1.58038C32.9836 1.63319 33.6236 1.82461 34.1316 2.23385C34.5803 2.59689 34.864 3.07874 35.0223 3.63979C35.1147 3.96323 35.1477 4.29986 35.1675 4.6365C35.1939 5.06554 35.1872 5.49459 35.1807 5.92364L35.1345 7.38899L35.1543 7.38239L34.9893 12.3461C34.9761 12.7752 34.9497 13.2108 34.8969 13.6398C34.8574 13.9831 34.798 14.3263 34.6924 14.6696C34.5077 15.2504 34.2042 15.7917 33.7819 16.2603C33.3266 16.762 32.7724 17.1382 32.1522 17.3956C31.7564 17.5606 31.3407 17.6663 30.9316 17.7587C30.351 17.8907 29.7703 17.9963 29.1897 18.0887C28.5959 18.1877 28.0021 18.2735 27.4017 18.3329C26.9861 18.3725 26.5572 18.4055 26.1481 18.3725C25.5015 18.3131 24.9077 18.1085 24.4261 17.7191C23.9774 17.356 23.6805 16.8676 23.5221 16.3065C23.4298 15.9831 23.3902 15.6465 23.3704 15.3098C23.344 14.8808 23.344 14.4517 23.3572 14.0227L23.5683 7.60021C23.5815 7.17116 23.6079 6.73552 23.6607 6.30647C23.6607 6.24707 23.6673 6.18106 23.6805 6.11505Z" fill="#007E94"/>
<path fill-rule="evenodd" clip-rule="evenodd" d="M33.9138 8.74933L30.562 9.29719L28.9917 11.7526L30.562 11.4952L30.5027 13.4226C30.4895 13.713 30.4433 14.1025 30.2058 14.3467C29.9616 14.5909 29.5064 14.6966 29.2029 14.7428C28.8994 14.789 28.4309 14.8418 28.2 14.6702C27.9756 14.4985 27.9559 14.1223 27.9625 13.8319L28.2 6.4985C28.2132 6.20807 28.2594 5.81862 28.4969 5.5744C28.741 5.32357 29.2095 5.22456 29.513 5.17176C29.8099 5.12555 30.2718 5.07275 30.4961 5.24436C30.7204 5.41598 30.7468 5.79222 30.7336 6.08265L30.7006 7.11896L33.96 6.58431L33.9798 6.00344C33.993 5.6074 33.9996 5.21136 33.9732 4.82192C33.96 4.56449 33.9336 4.28727 33.8676 4.04964C33.7686 3.6932 33.5905 3.38957 33.3068 3.15855C32.9769 2.89452 32.548 2.77571 32.0994 2.7427C31.7695 2.7163 31.4132 2.7361 31.0767 2.76911C30.5753 2.81531 30.0672 2.88792 29.5658 2.96713L29.5394 2.97373L25.2177 3.68L23.278 3.99684L24.9736 5.6206C24.9142 5.85163 24.8747 6.09586 24.8483 6.32028C24.7955 6.71632 24.7757 7.11896 24.7625 7.515L24.5513 13.9375C24.5382 14.3335 24.5382 14.7296 24.5646 15.1124C24.5844 15.3698 24.6107 15.6405 24.6767 15.8781C24.7823 16.2411 24.967 16.5513 25.2507 16.7824C25.5608 17.0332 25.9501 17.1652 26.379 17.2048C26.7023 17.2312 27.0784 17.1982 27.4083 17.1652C27.9757 17.1058 28.5431 17.02 29.1105 16.9276C29.6647 16.8352 30.219 16.7362 30.7732 16.6108C31.0965 16.5381 31.466 16.4457 31.7827 16.3137C32.2115 16.1355 32.6008 15.8781 32.9241 15.5216C33.221 15.1916 33.4256 14.822 33.5509 14.4193C33.6367 14.1553 33.6829 13.8715 33.7093 13.6008C33.762 13.2048 33.7818 12.8022 33.795 12.4061L33.9138 8.74933Z" fill="white"/>
</svg>
