<svg width="58" height="50" viewBox="0 0 58 50" fill="none" xmlns="http://www.w3.org/2000/svg">
<path fill-rule="evenodd" clip-rule="evenodd" d="M36.2819 0.647084C35.4109 2.04643 34.4344 6.5613 32.5606 8.89134L32.7982 9.59762C33.5503 8.78573 34.6456 7.43919 34.4806 6.62071C34.4806 6.62071 35.4043 3.57119 36.8361 3.55799C38.2678 3.54479 38.6703 11.0036 36.1697 15.3798C34.3487 18.5679 32.719 17.7165 31.5445 15.624C31.3796 15.9937 37.707 25.2544 39.9965 12.1191C40.1812 10.5217 40.2406 8.81873 40.1549 7.05635C39.9437 2.7593 37.7466 -1.69616 36.2819 0.647084Z" fill="#00C398"/>
<path fill-rule="evenodd" clip-rule="evenodd" d="M31.8809 9.72902C31.01 10.8049 29.9807 11.5112 28.7403 11.399C25.0191 11.069 21.3375 3.35276 19.3911 4.20425C19.2855 4.25045 19.1866 4.30986 19.1008 4.38907C11.9025 11.069 36.704 41.0097 39.9964 12.1185C37.2714 23.7225 31.8809 16.4419 31.5444 15.6234C31.1024 14.838 30.7263 13.8809 30.4294 12.8908L32.1251 10.2769C32.1251 10.2769 32.4154 10.0063 32.7981 9.59701L31.8809 9.72902Z" fill="#07E94"/>
<path fill-rule="evenodd" clip-rule="evenodd" d="M36.2817 0.647338C35.0017 2.69355 33.1411 10.4626 29.2747 10.1193C25.4084 9.77609 21.1461 3.10279 19.2459 4.28432C21.0867 3.92788 22.4855 7.38664 21.542 11.5187C20.2224 17.2811 18.5399 24.5418 22.0368 24.9445C24.8871 25.2745 28.0607 22.6738 30.7461 17.4197C33.1213 12.7728 35.1733 5.54505 35.49 3.79587C36.1696 0.0730782 36.6842 0.145686 37.0537 0.0136719C36.7898 0.0598767 36.5258 0.264498 36.2817 0.647338Z" fill="#00C398"/>
<path d="M10.9853 31.742H7.51479V39.3988H4.20924V31.742H0.751953V30.6133H10.9853V31.742Z" fill="#007E94"/>
<path d="M26.7939 37.6753C26.7939 38.771 26.0549 39.4047 24.577 39.4047H17.8537C16.389 39.4047 15.6368 38.771 15.6368 37.6753V32.3485C15.6368 31.2726 16.3824 30.6191 17.8537 30.6191H24.577C26.0549 30.6191 26.7939 31.2462 26.7939 32.3485V37.6753ZM23.4883 32.2099C23.4883 31.8931 23.2904 31.7413 22.8879 31.7413H19.5494C19.1469 31.7413 18.949 31.8931 18.949 32.2099V37.8073C18.949 38.1505 19.1469 38.2759 19.5494 38.2759H22.8879C23.2904 38.2759 23.4883 38.1241 23.4883 37.8073V32.2099Z" fill="#007E94"/>
<path d="M42.8267 37.7809C42.8267 38.7116 42.1141 39.4047 40.6494 39.4047H31.894V30.6191H40.6494C41.9821 30.6191 42.8267 31.1934 42.8267 32.2693V33.6291C42.7805 34.6126 42.2593 34.8238 40.3261 34.903V34.9426C42.2725 35.0416 42.7739 35.2066 42.8267 36.2363V37.7809ZM39.6267 32.3221C39.6267 31.9195 39.4749 31.7479 39.0527 31.7479H35.1995V34.4145H39.0527C39.4617 34.4145 39.6267 34.2297 39.6267 33.8535V32.3221ZM39.6267 36.1043C39.6267 35.7017 39.4749 35.5301 39.0527 35.5301H35.1995V38.2759H39.0527C39.4617 38.2759 39.6267 38.0911 39.6267 37.7149V36.1043Z" fill="#007E94"/>
<path d="M57.2302 39.3981H47.9271V30.6191H57.2302V31.7479H51.2327V34.4145H56.6825V35.5367H51.2327V38.2825H57.2302V39.3981Z" fill="#007E94"/>
<path d="M18.9161 49.869H18.0122V45.0505C18.0122 44.7534 17.9264 44.6016 17.5701 44.6016H15.439C15.1157 44.6016 15.0102 44.7006 15.0102 45.0042V49.8624H14.1129V44.0273H17.6889C17.999 44.0273 18.2431 44.0471 18.4213 44.0735C18.5994 44.1066 18.7314 44.1924 18.8039 44.3178C18.8765 44.4432 18.9227 44.6808 18.9227 45.0174V49.869H18.9161ZM22.8419 49.869H21.9379V45.0505C21.9379 44.7534 21.8522 44.6016 21.4959 44.6016H19.3648C19.0415 44.6016 18.9359 44.7006 18.9359 45.0042V49.8624H18.0386V44.0273H21.6147C21.9248 44.0273 22.1689 44.0471 22.347 44.0735C22.5252 44.1066 22.6571 44.1924 22.7297 44.3178C22.8023 44.4498 22.8485 44.6808 22.8485 45.0174V49.869H22.8419Z" fill="#00C398"/>
<path d="M29.9479 49.869H25.4944V44.0273H29.9479V44.5026H26.4247V46.7072H29.783V47.1825H26.4247V49.3937H29.9479V49.869Z" fill="#00C398"/>
<path d="M37.1989 44.5026H35.2196V49.869H34.2892V44.5026H32.3099V44.0273H37.1989V44.5026Z" fill="#00C398"/>
<path d="M45.9413 49.869H44.9384L44.0873 48.0802H40.9665L40.1088 49.869H39.5809L42.3784 44.0273H43.0844L45.9413 49.869ZM43.8761 47.6049L42.517 44.8326L41.1842 47.6049H43.8761Z" fill="#00C398"/>
</svg>
