<svg width="58" height="50" viewBox="0 0 58 50" fill="none" xmlns="http://www.w3.org/2000/svg">
<path d="M40.4397 7.05469C40.8686 10.223 37.8204 11.1867 36.3622 11.2395C35.8608 11.2593 34.4752 11.2527 33.5581 11.2461C33.0896 11.2461 32.707 11.6158 32.707 12.0844V17.8534H36.2369C36.2369 17.8534 40.8752 18.1438 40.8752 14.9029V8.94909C40.8752 8.28902 40.7168 7.64215 40.4397 7.05469Z" fill="#007E94"/>
<path d="M36.2368 17.8587H25.4888C25.4888 17.8587 25.4822 18.3736 25.4888 19.4957C25.4954 21.0534 25.2579 25.0733 28.2731 26.1492C28.5305 26.1954 28.7878 26.2218 29.0451 26.2218C29.8039 26.2218 30.5692 26.0238 31.2488 25.6343L38.6715 21.3439C40.0306 20.5584 40.8752 19.0996 40.8752 17.5287V14.9082C40.8752 18.1491 36.2368 17.8587 36.2368 17.8587Z" fill="#00C297"/>
<path d="M25.4891 19.495C25.4825 16.8085 25.4891 14.1154 25.4891 14.1154V12.089C25.4891 11.6204 25.113 11.2441 24.6446 11.2441H23.2788C21.6689 12.2606 19.8941 13.4026 19.4256 13.7524C18.4887 14.4455 17.0768 15.627 17.2813 18.2079C17.4859 19.5148 182644 20.6765 19.4256 21.3498L26.8483 25.6402C27.297 25.8977 27.7786 26.0693 28.2734 26.1617C25.2582 25.066 25.4957 21.0528 25.4891 19.495Z" fill="#007E94"/>
<path d="M25.9244 5.58851C24.1298 4.43999 21.8469 3.73372 19.4254 5.13967C18.0663 5.92515 17.2217 7.3839 17.2217 8.95486V17.5292C17.2217 17.7536 17.2415 17.978 17.2745 18.2024C17.07 15.6282 18.4885 14.4466 19.4188 13.747C20.3294 13.0671 26.1289 9.44332 26.1289 9.44332L29.032 7.58192C28.0489 6.94826 26.9471 6.24858 25.9244 5.58851Z" fill="#00C297"/>
<path d="M36.3622 11.2387C37.8203 11.1859 40.8752 10.2221 40.4397 7.05382C40.0636 6.26174 39.45 5.58847 38.6715 5.13962L31.2488 0.849179C30.5692 0.459739 29.8105 0.261719 29.0451 0.261719C28.2864 0.261719 27.521 0.459739 26.8414 0.849179L19.4188 5.13962C21.8468 3.74028 24.1297 4.43995 25.9177 5.58847C28.7086 7.37725 32.0999 9.53568 32.0999 9.53568L34.8645 11.2519C35.4847 11.2519 36.0719 11.2519 36.3622 11.2387Z" fill="#00C297"/>
<path d="M30.7146 11.8789H27.4618V15.1331H30.7146V11.8789Z" fill="#00C297"/>
<path d="M11.0395 31.8318H7.56901V39.4887H4.26346V31.8318H0.806152V30.7031H11.0395V31.8318Z" fill="#007E94"/>
<path d="M26.8483 37.7593C26.8483 38.855 26.1093 39.4887 24.6314 39.4887H17.9147C16.45 39.4887 15.6978 38.855 15.6978 37.7593V32.4325C15.6978 31.3566 16.4434 30.7031 17.9147 30.7031H24.638C26.1159 30.7031 26.8549 31.3302 26.8549 32.4325V37.7593H26.8483ZM23.5427 32.3005C23.5427 31.9837 23.3448 31.8318 22.9423 31.8318H19.6038C19.2013 31.8318 19.0034 31.9837 19.0034 32.3005V37.8979C19.0034 38.2411 19.2013 38.3665 19.6038 38.3665H22.9423C23.3448 38.3665 23.5427 38.2147 23.5427 37.8979V32.3005Z" fill="#007E94"/>
<path d="M42.8809 37.8649C42.8809 38.7956 42.1684 39.4887 40.7036 39.4887H31.9482V30.7031H40.7036C42.0364 30.7031 42.8809 31.2774 42.8809 32.3533V33.713C42.8347 34.6965 42.3135 34.9078 40.3803 34.987V35.0266C42.3267 35.1256 42.8281 35.2906 42.8809 36.3203V37.8649ZM39.6809 32.4061C39.6809 32.0035 39.5292 31.8318 39.1069 31.8318H35.2537V34.4985H39.1069C39.516 34.4985 39.6809 34.3137 39.6809 33.9375V32.4061ZM39.6809 36.1883C39.6809 35.7857 39.5292 35.614 39.1069 35.614H35.2537V38.3599H39.1069C39.516 38.3599 39.6809 38.1751 39.6809 37.7989V36.1883Z" fill="#007E94"/>
<path d="M57.2844 39.4887H47.9813V30.7031H57.2844V31.8318H51.2869V34.4985H56.7367V35.6206H51.2869V38.3665H57.2844V39.4887Z" fill="#007E94"/>
<path d="M20.9961 49.9529H20.0526L18.8122 47.2863H16.5689V49.9529H15.6386V44.1113H19.6633C20.112 44.1113 20.4287 44.1905 20.6134 44.349C20.7982 44.5074 20.8839 44.7846 20.8839 45.1872V46.1971C20.8708 47.042 20.5936 47.2863 19.7953 47.2929L20.9961 49.9529ZM19.9536 45.0024C19.9536 44.6658 19.8613 44.5866 19.571 44.5866H16.5689V46.811H19.571C19.8877 46.811 19.9536 46.6988 19.9536 46.4018V45.0024Z" fill="#00C398"/>
<path d="M27.9768 49.9529H23.5232V44.1113H27.9768V44.5866H24.4535V46.7912H27.8118V47.2665H24.4535V49.4777H27.9768V49.9529Z" fill="#00C398"/>
<path d="M36.7123 49.9529H35.7094L34.8582 48.1642H31.7374L30.8797 49.9529H30.3519L33.1494 44.1113H33.8554L36.7123 49.9529ZM34.6405 47.6889L33.2813 44.9166L31.9486 47.6889H34.6405Z" fill="#00C398"/>
<path d="M43.9305 49.9529H39.2592V44.1113H40.1895V49.4777H43.9305V49.9529Z" fill="#00C398"/>
</svg>
