<svg width="58" height="47" viewBox="0 0 58 47" fill="none" xmlns="http://www.w3.org/2000/svg">
<path fill-rule="evenodd" clip-rule="evenodd" d="M34.5456 1.5211C34.0706 0.729015 33.3646 0.359375 32.2627 0.359375H29.0825H27.2747C26.958 0.359375 26.6941 0.445184 26.5159 0.597C26.4697 0.643205 26.4236 0.689407 26.384 0.748813C26.5621 0.550792 26.9184 0.597001 27.0438 0.814824L29.6104 5.13167L33.0017 10.8479L35.852 15.6532C36.3864 16.5245 37.2112 16.8743 38.379 16.8743H40.1076H43.6441L34.5456 1.5211Z" fill="#007E94"/>
<path fill-rule="evenodd" clip-rule="evenodd" d="M48.2361 20.7031C48.2229 20.6767 48.2032 20.6569 48.1834 20.6305L47.0881 18.7889C46.237 17.3565 44.8646 16.8813 42.9842 16.8813H43.6506H40.1141H38.3855C37.2176 16.8813 36.3863 16.5248 35.8585 15.6602L36.1422 16.1486L37.4684 18.3664L39.0189 20.9935C39.4675 21.746 40.0613 22.043 41.1368 22.043H49.0213L48.2361 20.7031Z" fill="#00C297"/>
<path fill-rule="evenodd" clip-rule="evenodd" d="M33.0083 10.8557L29.617 5.13947L27.0504 0.82262C26.9184 0.60498 26.5687 0.558594 26.3906 0.756614C26.318 0.868826 26.2718 1.01404 26.285 1.17906V1.21866L27.0042 21.496C27.0174 21.7798 26.6611 21.9382 26.4038 21.7732C26.4632 21.8194 26.5225 21.859 26.5951 21.8854C26.8063 21.9976 27.0702 22.0372 27.4133 22.0372H29.1617H31.6557C32.7576 22.0372 33.391 21.5092 33.358 20.6049L33.0083 10.8557ZM30.1778 21.2782C30.1844 21.2121 30.191 21.1461 30.1844 21.0735C30.191 21.1461 30.1844 21.2188 30.1778 21.2782Z" fill="#00C297"/>
<path fill-rule="evenodd" clip-rule="evenodd" d="M26.6412 11.1375L23.8767 6.86031C23.3555 6.05502 22.0821 5.98901 21.574 6.8537L18.7633 11.5996L18.671 11.7514C18.9217 11.329 19.5947 11.362 19.8652 11.7712L22.9266 16.4973L26.1068 21.4148C26.1992 21.56 26.3047 21.6789 26.4169 21.7713C26.6742 21.9363 27.0305 21.7779 27.0173 21.494L26.6412 11.1375ZM20.9736 8.7349C21.1254 8.7415 21.2771 8.77451 21.4091 8.84711C21.2771 8.77451 21.1254 8.7349 20.9736 8.7349Z" fill="#007E94"/>
<path fill-rule="evenodd" clip-rule="evenodd" d="M21.0728 13.6467L19.8522 11.7655C19.5816 11.3562 18.9087 11.3232 18.6579 11.7457L13.9932 19.6137L12.5615 22.0295H16.0979H19.6344L22.9202 16.4915L21.0728 13.6467Z" fill="#00C297"/>
<path d="M11.2285 28.8338H7.75797V36.4906H4.45242V28.8338H0.995117V27.7051H11.2285V28.8338Z" fill="#007E94"/>
<path d="M27.0371 34.7612C27.0371 35.8569 26.2981 36.4906 24.8202 36.4906H18.0969C16.6322 36.4906 15.88 35.8569 15.88 34.7612V29.4345C15.88 28.3585 16.6256 27.7051 18.0969 27.7051H24.8202C26.2981 27.7051 27.0371 28.3321 27.0371 29.4345V34.7612ZM23.7315 29.3024C23.7315 28.9856 23.5336 28.8338 23.1311 28.8338H19.7926C19.3901 28.8338 19.1922 28.9856 19.1922 29.3024V34.8998C19.1922 35.2431 19.3901 35.3685 19.7926 35.3685H23.1311C23.5336 35.3685 23.7315 35.2167 23.7315 34.8998V29.3024Z" fill="#007E94"/>
<path d="M43.0699 34.8668C43.0699 35.7975 42.3573 36.4906 40.8926 36.4906H32.1371V27.7051H40.8926C42.2254 27.7051 43.0699 28.2793 43.0699 29.3553V30.715C43.0237 31.6985 42.5025 31.9097 40.5693 31.9889V32.0285C42.5157 32.1275 43.0171 32.2926 43.0699 33.3223V34.8668ZM39.8699 29.4081C39.8699 29.0054 39.7182 28.8338 39.2959 28.8338H35.4427V31.5005H39.2959C39.705 31.5005 39.8699 31.3157 39.8699 30.9394V29.4081ZM39.8699 33.1903C39.8699 32.7876 39.7182 32.616 39.2959 32.616H35.4427V35.3619H39.2959C39.705 35.3619 39.8699 35.1771 39.8699 34.8008V33.1903Z" fill="#007E94"/>
<path d="M57.4733 36.4906H48.1703V27.7051H57.4733V28.8338H51.4758V31.5005H56.9257V32.6226H51.4758V35.3685H57.4733V36.4906Z" fill="#007E94"/>
<path d="M15.9327 41.4037C15.8602 41.2717 15.7282 41.1925 15.5501 41.1595C15.3719 41.1265 15.1278 41.1133 14.8177 41.1133H7.31586V46.9549H8.21317V42.0968C8.21317 41.7866 8.32533 41.6941 8.64203 41.6941H10.7732C11.1294 41.6941 11.2152 41.846 11.2152 42.143V46.9615H11.235H12.1191H12.1323V42.1034C12.1323 41.7932 12.2445 41.7007 12.5612 41.7007H14.6923C15.0486 41.7007 15.1344 41.8526 15.1344 42.1496V46.9681H16.0383V42.1232C16.0449 41.7733 16.0053 41.5357 15.9327 41.4037Z" fill="#00C398"/>
<path d="M24.8926 46.9549H23.8897L23.0385 45.1661H19.9177L19.06 46.9549H18.5322L21.3297 41.1133H22.0357L24.8926 46.9549ZM22.8208 44.6909L21.4616 41.9186L20.1289 44.6909H22.8208Z" fill="#00C398"/>
<path d="M32.7972 46.9549H31.8603L30.6199 44.2882H28.3766V46.9549H27.4463V41.1133H31.471C31.9197 41.1133 32.2364 41.1925 32.4211 41.3509C32.6059 41.5093 32.6916 41.7866 32.6916 42.1892V43.1991C32.6784 44.044 32.4013 44.2882 31.603 44.2948L32.7972 46.9549ZM31.7547 42.0044C31.7547 41.6677 31.6623 41.5885 31.372 41.5885H28.37V43.813H31.372C31.6887 43.813 31.7547 43.7008 31.7547 43.4037V42.0044Z" fill="#00C398"/>
<path d="M40.7872 46.9549H39.6193L37.541 43.8262L36.2544 45.0803V46.9549H35.3241V41.1133H36.2544V44.4466L39.7447 41.1133H40.4243L38.2008 43.2057L40.7872 46.9549Z" fill="#00C398"/>
<path d="M47.695 46.9549H43.2415V41.1133H47.695V41.5885H44.1718V43.7932H47.5301V44.2684H44.1718V46.4796H47.695V46.9549Z" fill="#00C398"/>
<path d="M54.9464 41.5885H52.967V46.9549H52.0367V41.5885H50.0574V41.1133H54.9464V41.5885Z" fill="#00C398"/>
</svg>
