<svg width="57" height="52" viewBox="0 0 57 52" fill="none" xmlns="http://www.w3.org/2000/svg">
<path d="M10.3476 32.992H6.8771V40.6488H3.57155V32.992H0.114258V31.8633H10.3476V32.992Z" fill="#007E94"/>
<path d="M26.1562 38.9194C26.1562 40.0151 25.4172 40.6488 23.9393 40.6488H17.216C15.7513 40.6488 14.9991 40.0151 14.9991 38.9194V33.5927C14.9991 32.5167 15.7447 31.8633 17.216 31.8633H23.9393C25.4172 31.8633 26.1562 32.4903 26.1562 33.5927V38.9194ZM22.8507 33.4607C22.8507 33.1438 22.6527 32.992 22.2502 32.992H18.9117C18.5092 32.992 18.3113 33.1438 18.3113 33.4607V39.058C18.3113 39.4013 18.5092 39.5267 18.9117 39.5267H22.2502C22.6527 39.5267 22.8507 39.3749 22.8507 39.058V33.4607Z" fill="#007E94"/>
<path d="M42.189 39.025C42.189 39.9557 41.4764 40.6488 40.0117 40.6488H31.2563V31.8633H40.0117C41.3445 31.8633 42.189 32.4375 42.189 33.5135V34.8732C42.1428 35.8567 41.6216 36.0679 39.6884 36.1471V36.1867C41.6348 36.2858 42.1362 36.4508 42.189 37.4805V39.025ZM38.989 33.5663C38.989 33.1636 38.8372 32.992 38.41 32.992H34.5618V35.6587H38.415C38.824 35.6587 38.989 35.4739 38.989 35.0976V33.5663ZM38.989 37.3485C38.989 36.9458 38.8372 36.7742 38.415 36.7742H34.5618V39.5201H38.415C38.824 39.5201 38.989 39.3353 38.989 38.959V37.3485Z" fill="#007E94"/>
<path d="M56.5925 40.6488H47.2894V31.8633H56.5925V32.992H50.595V35.6587H56.0449V36.7808H50.595V39.5201H56.5925V40.6488Z" fill="#007E94"/>
<path d="M20.4818 45.7436H16.8397V47.9482H20.1255V48.4234H16.8397V51.1033H15.9094V45.2617H20.4818V45.7436Z" fill="#00C398"/>
<path d="M29.2307 51.1092H28.2278L27.3767 49.3204H24.2625L23.4047 51.1092H22.8769L25.6744 45.2676H26.3804L29.2307 51.1092ZM27.1589 48.8452L25.7998 46.0729L24.467 48.8452H27.1589Z" fill="#00C398"/>
<path d="M37.1283 51.1092H36.1914L34.951 48.4425H32.7077V51.1092H31.7774V45.2676H35.8022C36.2508 45.2676 36.5675 45.3468 36.7523 45.5052C36.937 45.6636 37.0228 45.9409 37.0228 46.3435V47.3534C37.0096 48.1983 36.7325 48.4425 35.9341 48.4491L37.1283 51.1092ZM36.0859 46.1653C36.0859 45.8286 35.9935 45.7494 35.7032 45.7494H32.7011V47.9739H35.7032C36.0199 47.9739 36.0859 47.8617 36.0859 47.5646V46.1653Z" fill="#00C398"/>
<path d="M44.3793 51.1092H43.4754V46.2907C43.4754 45.9937 43.3896 45.8418 43.0333 45.8418H40.9022C40.5789 45.8418 40.4733 45.9409 40.4733 46.2445V51.1092H39.576V45.2676H43.1521C43.4622 45.2676 43.7063 45.2874 43.8844 45.3138C44.0626 45.3468 44.1945 45.4326 44.2671 45.558C44.3397 45.69 44.3859 45.921 44.3859 46.2577V51.1092H44.3793ZM48.2984 51.1092H47.3945V46.2907C47.3945 45.9937 47.3087 45.8418 46.9524 45.8418H44.8213C44.498 45.8418 44.3924 45.9409 44.3924 46.2445V51.1092H43.4951V45.2676H47.0712C47.3813 45.2676 47.6254 45.2874 47.8036 45.3138C47.9817 45.3468 48.1137 45.4326 48.1862 45.558C48.2588 45.69 48.305 45.921 48.305 46.2577V51.1092H48.2984Z" fill="#00C398"/>
<path fill-rule="evenodd" clip-rule="evenodd" d="M40.1306 16.7467V12.1922C39.6159 12.1526 39.0947 12.1328 38.5669 12.1328C35.4791 12.1328 32.5628 12.8325 29.9434 14.0668C32.9982 16.08 35.6506 18.7665 37.4518 21.8556C38.3096 21.3936 39.2201 20.9381 39.7215 20.0734C40.3021 19.0701 40.1306 17.8622 40.1306 16.7467Z" fill="#007E94"/>
<path fill-rule="evenodd" clip-rule="evenodd" d="M40.1303 16.7472V14.668C37.7682 15.031 35.5447 15.8099 33.5192 16.9122C35.0565 18.3842 36.3958 20.0541 37.4515 21.8561C38.3092 21.3941 39.2198 20.9386 39.7212 20.0739C40.3018 19.0706 40.1303 17.8627 40.1303 16.7472Z" fill="#00C297"/>
<path fill-rule="evenodd" clip-rule="evenodd" d="M25.305 25.2539C25.2984 25.2737 25.2852 25.2869 25.2786 25.3067C26.0968 25.782 26.9215 26.3958 27.8584 26.574C26.9215 26.3958 26.11 25.7556 25.305 25.2539Z" fill="#00C297"/>
<path fill-rule="evenodd" clip-rule="evenodd" d="M18.1396 12.1328C25.8196 12.1328 32.5032 16.4035 35.9407 22.7071L31.4344 25.3078C30.4711 25.8623 29.5144 26.6213 28.3531 26.6279C27.1919 26.6345 26.2286 25.8754 25.2653 25.321L19.6703 22.0933C18.707 21.5388 17.5722 21.0834 16.9849 20.08C16.3977 19.0767 16.5759 17.8688 16.5759 16.7533V12.1988C17.0905 12.1526 17.6117 12.1328 18.1396 12.1328Z" fill="#00C297"/>
<path fill-rule="evenodd" clip-rule="evenodd" d="M16.5759 14.668C23.0418 15.6647 28.5049 19.7175 31.4344 25.3083C30.4711 25.8627 29.5144 26.6218 28.3531 26.6284C27.1919 26.635 26.2286 25.8759 25.2653 25.3215L19.6703 22.0937C18.707 21.5393 17.5722 21.0838 16.9849 20.0805C16.3977 19.0772 16.5759 17.8693 16.5759 16.7538V14.668Z" fill="#007E94"/>
<path fill-rule="evenodd" clip-rule="evenodd" d="M16.5759 16.5488C20.4027 18.496 23.5301 21.6182 25.4831 25.4466C25.4105 25.4004 25.3379 25.3607 25.2653 25.3211L19.6703 22.0934C18.707 21.539 17.5722 21.0835 16.9849 20.0802C16.3977 19.0769 16.5759 17.869 16.5759 16.7534V16.5488Z" fill="#00C297"/>
<path fill-rule="evenodd" clip-rule="evenodd" d="M34.4893 10.6937C33.3875 8.40327 31.0518 6.8125 28.3401 6.8125C25.6151 6.8125 23.2729 8.41647 22.1776 10.7267C24.2823 11.1954 26.3673 12.0072 28.3269 13.0964C30.2403 11.9676 32.312 11.1492 34.4893 10.6937Z" fill="#00C297"/>
<path fill-rule="evenodd" clip-rule="evenodd" d="M28.3398 4.97154C31.9885 4.97154 35.1027 7.22897 36.3827 10.4237C37.181 10.3313 37.986 10.2653 38.7975 10.2653C39.233 10.2653 39.6684 10.2851 40.1039 10.3115V10.2653C40.1039 9.14977 40.2754 7.94185 39.6948 6.93854C39.1142 5.93524 37.9728 5.48639 37.0095 4.92533L31.4145 1.6976C30.4512 1.13654 29.4879 0.384067 28.3266 0.390668C27.1654 0.397269 26.2087 1.15635 25.2454 1.7108L19.6504 4.93854C18.6871 5.4996 17.5522 5.94844 16.9716 6.95835C16.3976 7.96165 16.5758 9.17618 16.5758 10.2917V10.3313C17.097 10.2917 17.6182 10.2719 18.1395 10.2719C18.8586 10.2719 19.5844 10.3181 20.3102 10.4039C21.5902 7.21577 24.7044 4.97154 28.3398 4.97154Z" fill="#007E94"/>
</svg>
