<svg width="57" height="50" viewBox="0 0 57 50" fill="none" xmlns="http://www.w3.org/2000/svg">
<path d="M10.7487 31.2225H7.27823V38.8793H3.97268V31.2225H0.515381V30.0938H10.7487V31.2225Z" fill="#007E94"/>
<path d="M26.5573 37.1557C26.5573 38.2515 25.8184 38.8851 24.3404 38.8851H17.6172C16.1524 38.8851 15.4003 38.2515 15.4003 37.1557V31.829C15.4003 30.7531 16.1458 30.0996 17.6172 30.0996H24.3404C25.8184 30.0996 26.5573 30.7267 26.5573 31.829V37.1557ZM23.2518 31.6904C23.2518 31.3735 23.0539 31.2217 22.6514 31.2217H19.3128C18.9104 31.2217 18.7124 31.3735 18.7124 31.6904V37.2878C18.7124 37.631 18.9104 37.7564 19.3128 37.7564H22.6514C23.0539 37.7564 23.2518 37.6046 23.2518 37.2878V31.6904Z" fill="#007E94"/>
<path d="M42.5902 37.2614C42.5902 38.1921 41.8776 38.8851 40.4129 38.8851H31.6575V30.0996H40.4129C41.7456 30.0996 42.5902 30.6739 42.5902 31.7498V33.1095C42.544 34.093 42.0228 34.3042 40.0896 34.3835V34.4231C42.036 34.5221 42.5374 34.6871 42.5902 35.7168V37.2614ZM39.3902 31.8026C39.3902 31.3999 39.238 31.2283 38.8162 31.2283H34.963V33.895H38.8162C39.2253 33.895 39.3902 33.7102 39.3902 33.3339V31.8026ZM39.3902 35.5848C39.3902 35.1821 39.2384 35.0105 38.8162 35.0105H34.963V37.7564H38.8162C39.2253 37.7564 39.3902 37.5716 39.3902 37.1953V35.5848Z" fill="#007E94"/>
<path d="M56.9999 38.8785H47.6969V30.0996H56.9999V31.2283H51.0024V33.895H56.4523V35.0171H51.0024V37.763H56.9999V38.8785Z" fill="#007E94"/>
<path d="M17.2341 48.265C17.2341 48.6676 17.1484 48.9448 16.9636 49.1098C16.7789 49.2683 16.4622 49.3475 16.0135 49.3475H12.2197V48.8722H15.9211C16.2049 48.8722 16.3038 48.7798 16.3038 48.4498V47.1956C16.3038 46.8986 16.2444 46.7864 15.9211 46.7864H13.4403C12.9983 46.7864 12.6816 46.7072 12.4968 46.5488C12.3121 46.3904 12.2197 46.1065 12.2197 45.6973V44.5818C12.2197 43.7831 12.5496 43.5059 13.4403 43.5059H17.2341V43.9811H13.5327C13.249 43.9811 13.15 44.0669 13.15 44.397V45.4927C13.15 45.7831 13.2292 45.9019 13.5327 45.9019H16.0135C16.8976 45.9019 17.2341 46.1527 17.2341 46.991V48.265Z" fill="#00C398"/>
<path d="M25.0987 48.2584C25.0987 48.9712 24.716 49.3475 23.8715 49.3475H21.0014C20.1437 49.3475 19.7808 48.9514 19.7808 48.2584V44.5818C19.7808 43.8623 20.1832 43.5059 21.0014 43.5059H23.8715C24.683 43.5059 25.0987 43.8689 25.0987 44.5818V48.2584ZM24.1684 44.397C24.1684 44.0603 24.0694 43.9811 23.7857 43.9811H21.0938C20.8101 43.9811 20.7111 44.0669 20.7111 44.397V48.4564C20.7111 48.7534 20.7903 48.8722 21.0938 48.8722H23.7857C24.1024 48.8722 24.1684 48.7534 24.1684 48.4564V44.397Z" fill="#00C398"/>
<path d="M32.4555 49.3475H31.5516V44.529C31.5516 44.2319 31.4658 44.0801 31.1095 44.0801H28.9784C28.6551 44.0801 28.5495 44.1791 28.5495 44.4828V49.3409H27.6522V43.5059H31.2283C31.5384 43.5059 31.7825 43.5257 31.9606 43.5521C32.1388 43.5851 32.2707 43.6709 32.3433 43.7963C32.4159 43.9283 32.4621 44.1593 32.4621 44.496V49.3475H32.4555Z" fill="#00C398"/>
<path d="M39.4888 49.3475H35.0352V43.5059H39.4888V43.9811H35.9654V46.1857H39.3238V46.661H35.9654V48.8722H39.4888V49.3475Z" fill="#00C398"/>
<path d="M46.7402 43.9811H44.7608V49.3475H43.8305V43.9811H41.8511V43.5059H46.7402V43.9811Z" fill="#00C398"/>
<path fill-rule="evenodd" clip-rule="evenodd" d="M31.8093 1.9274C31.8819 3.32015 32.4493 12.9307 32.4493 12.9307C32.4493 12.9307 32.1986 15.6436 34.3561 13.4918C36.5136 11.34 45.2954 2.54787 45.2954 2.54787C45.2954 2.54787 47.4925 0 44.3849 0C39.7994 0 24.7627 0 24.7627 0C20.5335 0 17.0696 3.46536 17.0696 7.6964C17.0696 9.81522 17.9339 11.736 19.3327 13.1354L29.9817 2.48186C29.9751 2.48186 31.7433 0.640267 31.8093 1.9274Z" fill="#00C398"/>
<path fill-rule="evenodd" clip-rule="evenodd" d="M29.8429 22.3239C29.7703 20.9312 29.2029 11.3206 29.2029 11.3206C29.2029 11.3206 29.4536 8.60769 27.2961 10.7595C25.1385 12.9179 16.3567 21.7035 16.3567 21.7035C16.3567 21.7035 14.1596 24.2513 17.2673 24.2513C21.8528 24.2513 36.8894 24.2513 36.8894 24.2513C41.1187 24.2513 44.5826 20.786 44.5826 16.5549C44.5826 14.4361 43.7183 12.5153 42.3195 11.1159L31.6837 21.7695C31.6837 21.7695 29.9089 23.6111 29.8429 22.3239Z" fill="#007E94"/>
</svg>
