<svg width="237" height="47" viewBox="0 0 237 47" fill="none" xmlns="http://www.w3.org/2000/svg">
<path fill-rule="evenodd" clip-rule="evenodd" d="M2.69415 19.5572C3.07903 23.7291 3.78464 28.0842 5.85871 31.8288C5.96562 32.012 1.30431 38.8702 1.30431 38.8702L7.01334 33.6604L8.95912 31.8084L9.64335 32.4597L11.076 31.0962C8.63839 28.2674 7.41961 24.7874 7.41961 21.3277C7.41961 17.3797 9.00188 13.4112 12.1664 10.3993C15.331 7.38738 19.5005 5.88141 23.6487 5.88141C27.7968 5.88141 31.9663 7.38738 35.1309 10.3993C38.2954 13.4112 39.8777 17.3797 39.8777 21.3277C39.8777 25.2758 38.2954 29.2442 35.1309 32.2562C31.9663 35.2681 27.7968 36.7741 23.6487 36.7741C20.0137 36.7741 16.3573 35.6141 13.3852 33.2941L11.9526 34.6576L12.6368 35.3088L3.67773 43.8358L0 40.3151C0 40.3151 2.80106 44.1818 3.93432 45.2604C5.06757 46.339 6.09391 44.833 6.09391 44.833L12.1237 39.0941C15.9511 42.5334 19.7571 44.4667 24.0763 46.8885C30.8117 43.1032 38.8727 38.0358 42.2939 31.8084C44.368 28.0639 45.0736 23.7088 45.4584 19.5369C45.9502 14.2456 45.9716 8.73053 45.9502 3.3172C41.909 2.80842 37.9533 1.91298 33.9121 1.13965C30.6834 0.529123 27.3692 0 24.0763 0C23.221 0 22.3657 0.0407018 21.5104 0.101754C14.9247 0.590176 8.72392 2.46246 2.20236 3.29684C2.18098 8.73053 2.20236 14.2456 2.69415 19.5572Z" fill="#4BBD99"/>
<path fill-rule="evenodd" clip-rule="evenodd" d="M11.4824 21.307C11.4824 24.2783 12.6798 27.2292 15.0532 29.5085C17.4267 31.7674 20.5485 32.9071 23.6702 32.9071C26.792 32.9071 29.8925 31.7674 32.2873 29.5085C34.6607 27.2495 35.8581 24.2783 35.8581 21.307C35.8581 18.3358 34.6607 15.3646 32.2873 13.1056C29.9138 10.8467 26.792 9.70703 23.6702 9.70703C20.5485 9.70703 17.448 10.8467 15.0532 13.1056C12.6584 15.3849 11.4824 18.3358 11.4824 21.307Z" fill="white"/>
<path d="M54.3322 9.78906H75.5219L74.4314 13.6761H68.0809L62.6712 32.8873H54.2253L59.635 13.6761H53.2417L54.3322 9.78906Z" fill="white"/>
<path d="M94.8727 15.9551C95.1934 15.9551 95.5142 15.9754 95.7921 16.0161C96.0701 16.0568 96.3908 16.1586 96.6047 16.1993C96.8826 16.24 97.0751 16.3824 97.2034 16.5249C97.3958 16.647 97.5669 16.8912 97.7165 17.0744C97.8662 17.2575 97.909 17.5628 97.9945 17.807C98.0373 18.1123 98.1014 18.4582 98.0586 18.8449C98.0586 19.0484 98.0373 19.3333 97.9517 19.5775C97.8662 19.8421 97.8448 20.1677 97.7593 20.473L95.4928 28.4912C95.4073 28.7965 95.279 29.1628 95.1934 29.4274C95.0651 29.7326 94.9155 29.9972 94.7872 30.2618C94.6589 30.567 94.4237 30.8316 94.2099 31.0961C94.0174 31.3607 93.7822 31.5642 93.5684 31.7474C93.3759 31.9305 93.1194 32.0933 92.8842 32.2358C92.6703 32.3579 92.3282 32.5411 92.1144 32.5818C91.7937 32.6632 91.4516 32.7649 91.1308 32.8056C90.7673 32.8463 90.4466 32.8667 90.1259 32.8667H76.2275C75.9067 32.8667 75.5432 32.8463 75.2225 32.7649C74.9018 32.7242 74.581 32.5818 74.3031 32.4393C74.0893 32.3172 73.8541 32.1747 73.7258 31.9916C73.5333 31.8084 73.3623 31.6253 73.2767 31.4218C73.234 31.2386 73.1271 30.974 73.0629 30.7095C73.0201 30.4449 72.9774 30.1804 73.0202 29.8344C73.0202 29.6512 72.9988 29.4884 73.0629 29.2849C73.1057 29.1018 73.1484 28.8168 73.234 28.6133L75.5005 20.4526C75.586 20.1474 75.6929 19.8624 75.7784 19.6182C75.8212 19.3537 75.9923 19.0891 76.0778 18.8856C76.2702 18.5396 76.5054 18.1937 76.6979 17.8884C76.9117 17.5831 77.1469 17.3593 77.4035 17.1558C77.6173 16.9523 77.9594 16.7081 78.1733 16.586C78.4512 16.4638 78.7933 16.2807 79.0285 16.24C79.3493 16.1993 79.6272 16.0975 79.9052 16.0568C80.1832 16.0161 80.4825 15.9958 80.7605 15.9958H94.8727V15.9551ZM84.5665 19.2926C84.5024 19.2926 84.4168 19.3333 84.3313 19.3944C84.2458 19.4758 84.1175 19.5775 84.0533 19.6182C84.0106 19.6996 83.8823 19.8217 83.8823 19.8828C83.8395 19.9642 83.7967 20.127 83.754 20.1677L81.4233 28.4912C81.3806 28.6133 81.3806 28.7558 81.4233 28.8372C81.4661 28.9593 81.5089 29.1018 81.5516 29.1628C81.5944 29.2442 81.7013 29.3663 81.7868 29.4274C81.9151 29.4884 82.0007 29.5291 82.1289 29.5291H86.0205C86.1488 29.5291 86.2557 29.5088 86.384 29.4274C86.5123 29.3867 86.7047 29.2849 86.7903 29.2035C86.9185 29.1628 87.0468 29 87.0896 28.9186C87.2179 28.7965 87.282 28.654 87.282 28.5726L89.6555 20.2084C89.6982 20.127 89.6982 19.9642 89.6982 19.8828C89.6555 19.8014 89.5699 19.6793 89.5272 19.5979C89.4844 19.5572 89.3775 19.4554 89.292 19.3944C89.2064 19.3537 89.0781 19.2926 89.014 19.2926H84.5665V19.2926Z" fill="white"/>
<path d="M110.61 9.78875L108.878 15.9347H113.411H117.944C118.393 15.9347 118.778 15.9551 118.992 15.9958C119.27 16.0365 119.484 16.0772 119.569 16.1179C119.697 16.1586 119.826 16.2196 119.869 16.2196C119.869 16.2603 119.89 16.2807 119.826 16.2807C120.04 16.3621 120.318 16.5249 120.531 16.7081C120.724 16.8912 120.852 17.1151 121.045 17.2779C121.323 17.7459 121.515 18.2954 121.515 18.8856C121.515 19.1909 121.536 19.5368 121.451 19.8421C121.451 20.1474 121.387 20.5544 121.258 20.941L119.291 27.9621C119.163 28.3488 119.013 28.7558 118.885 29.0814C118.757 29.407 118.564 29.753 118.372 30.0175C118.094 30.3635 117.837 30.7298 117.623 30.974C117.303 31.2793 117.025 31.5439 116.704 31.7067C116.49 31.9102 116.127 32.0933 115.849 32.2154C115.528 32.3375 115.25 32.5207 114.929 32.5614C114.523 32.6835 114.159 32.7853 113.946 32.7853C113.732 32.826 113.497 32.8463 113.411 32.8463H113.112H104.559H95.9419L102.399 9.74805H110.61V9.78875ZM108.921 19.2316C108.793 19.2316 108.664 19.2723 108.557 19.3333C108.365 19.4147 108.194 19.5368 108.108 19.6182C107.98 19.6996 107.852 19.8421 107.766 19.9642C107.681 20.0863 107.617 20.2491 107.552 20.3916L105.265 28.4912C105.222 28.6133 105.222 28.7354 105.265 28.8372C105.307 28.9593 105.371 29.1017 105.436 29.1628C105.478 29.2442 105.628 29.3663 105.671 29.4274C105.799 29.4884 105.949 29.5291 106.077 29.5291H109.669C109.755 29.5291 109.926 29.5088 110.011 29.4274C110.204 29.3867 110.375 29.2442 110.46 29.1628C110.546 29.0814 110.674 28.9186 110.738 28.8372C110.845 28.7151 110.931 28.5726 110.931 28.4505L113.24 20.3509C113.283 20.2695 113.283 20.127 113.283 20.0049C113.24 19.8828 113.197 19.6996 113.155 19.6182C113.112 19.5368 113.005 19.4147 112.919 19.3537C112.834 19.313 112.684 19.2316 112.556 19.2316H108.921V19.2316Z" fill="white"/>
<path d="M143.496 15.8934C143.902 15.8934 144.287 15.9341 144.65 15.9952C144.971 16.0766 145.334 16.1783 145.655 16.3411C145.869 16.4632 146.104 16.6871 146.233 16.8499C146.425 17.0534 146.553 17.3383 146.639 17.5825C146.682 17.7657 146.767 18.0506 146.767 18.2541C146.767 18.4576 146.788 18.7629 146.724 19.0274C146.682 19.3734 146.575 19.8008 146.489 20.1874L144.757 26.2113H131.008L130.495 28.0429C130.452 28.226 130.452 28.3888 130.495 28.5517C130.495 28.7348 130.645 28.8976 130.73 29.0401C130.816 29.1622 131.008 29.3453 131.137 29.386C131.265 29.4674 131.457 29.5081 131.65 29.5081H141.272L140.331 32.8253H125.086C124.765 32.8253 124.401 32.805 124.081 32.7643C123.76 32.7236 123.439 32.5811 123.161 32.4387C122.947 32.3573 122.691 32.1741 122.541 31.991C122.413 31.8078 122.263 31.5432 122.178 31.2787C122.092 31.0955 122.049 30.8513 122.049 30.6071V29.7117C122.092 29.5081 122.092 29.2436 122.156 29.0401C122.242 28.7755 122.285 28.4906 122.327 28.226L124.465 20.5945C124.551 20.3299 124.658 20.0653 124.701 19.8618C124.786 19.6583 124.915 19.3938 124.979 19.1902C125.171 18.8443 125.342 18.4983 125.513 18.193C125.706 17.8878 125.962 17.5622 126.155 17.3587C126.433 17.0941 126.689 16.8295 126.967 16.6464C127.245 16.4632 127.587 16.2801 127.908 16.1987C128.186 16.1173 128.528 16.0155 128.849 15.9748C129.17 15.9341 129.533 15.873 129.79 15.873H143.496V15.8934ZM137.765 22.9348L138.514 20.2688C138.556 20.1874 138.556 20.0246 138.556 19.9432C138.514 19.8211 138.471 19.6787 138.428 19.5973C138.385 19.5159 138.278 19.4141 138.193 19.3327C138.107 19.292 137.979 19.2309 137.893 19.2309H133.981C133.852 19.2309 133.724 19.2716 133.638 19.3327C133.51 19.4141 133.36 19.5159 133.275 19.5566C133.189 19.638 133.061 19.8008 132.976 19.8822C132.847 20.0043 132.783 20.1264 132.783 20.2281L132.035 22.9348H137.765Z" fill="white"/>
<path d="M171.634 9.85043L170.544 13.6357H159.211C159.126 13.6357 158.955 13.656 158.912 13.6967C158.784 13.7374 158.634 13.8189 158.549 13.8596C158.463 13.941 158.356 14.0427 158.271 14.0834C158.185 14.1648 158.1 14.2869 158.1 14.3683L157.629 16.0778C157.586 16.1592 157.586 16.261 157.586 16.3017C157.586 16.3831 157.629 16.5052 157.693 16.5662C157.736 16.6476 157.843 16.8104 157.929 16.8511C158.057 16.9325 158.164 16.9732 158.292 16.9732H165.733C166.011 16.9732 166.332 16.9936 166.652 17.0343C166.973 17.075 167.273 17.1767 167.529 17.2174C167.807 17.2989 168.085 17.4413 168.299 17.5634C168.513 17.6855 168.791 17.9094 168.983 18.0722C169.111 18.2553 169.261 18.4385 169.325 18.6217C169.411 18.8252 169.518 19.049 169.56 19.2729C169.603 19.4764 169.603 19.7817 169.603 20.0462C169.56 20.3108 169.518 20.6364 169.432 20.9824L167.444 28.0238C167.401 28.2273 167.294 28.5325 167.208 28.7361C167.166 28.9396 167.016 29.2448 166.93 29.4076C166.738 29.7536 166.567 30.0589 166.396 30.3031C166.203 30.5676 165.947 30.8729 165.754 31.0764C165.263 31.5445 164.728 31.9515 164.108 32.2568C163.702 32.4399 163.317 32.6231 162.868 32.6841C162.462 32.7655 162.013 32.8469 161.542 32.8469H145.527L146.575 29.021H157.864C157.993 29.021 158.142 29.0006 158.271 28.9599C158.463 28.9192 158.57 28.8785 158.72 28.7971C158.805 28.7564 158.976 28.6546 159.062 28.5732C159.147 28.4918 159.254 28.3494 159.254 28.2273L159.832 26.1922C159.874 26.1108 159.874 25.948 159.832 25.8666C159.789 25.7852 159.703 25.6834 159.639 25.602C159.596 25.5613 159.489 25.4596 159.404 25.4189C159.276 25.3782 159.169 25.3578 159.04 25.3578H150.851C150.573 25.3578 150.274 25.3375 150.017 25.2968C149.739 25.2561 149.483 25.1746 149.312 25.1136C149.098 25.0729 148.884 24.9101 148.691 24.8287C148.499 24.7066 148.392 24.5438 148.242 24.4013C148.114 24.2182 148.029 24.0553 147.943 23.8518C147.858 23.6687 147.815 23.4041 147.815 23.1396C147.772 22.7122 147.793 22.1627 147.986 21.5725L150.017 14.3683C150.103 14.1038 150.188 13.8189 150.316 13.5746C150.402 13.3101 150.573 12.9845 150.765 12.7403C150.894 12.4757 151.129 12.1908 151.3 11.9262C151.514 11.6617 151.77 11.3971 152.048 11.1936C152.241 10.9901 152.497 10.8273 152.733 10.6441C153.011 10.461 153.267 10.3185 153.545 10.1964C153.823 10.115 154.122 10.0132 154.4 9.93183C154.678 9.89113 155.021 9.83008 155.341 9.83008H171.634V9.85043Z" fill="#4BBD99"/>
<path d="M189.938 15.9551L189.018 19.2723H182.732C182.539 19.2723 182.347 19.3537 182.155 19.3944C181.962 19.4758 181.77 19.5979 181.577 19.72C181.385 19.8421 181.214 20.0049 181.064 20.1474C180.979 20.3305 180.829 20.4933 180.829 20.6358L178.669 28.2877C178.627 28.4098 178.627 28.6133 178.669 28.7354C178.712 28.9186 178.819 29.0814 178.905 29.1628C179.033 29.2849 179.204 29.407 179.354 29.4477C179.482 29.5291 179.674 29.5495 179.867 29.5495H186.11L185.169 32.887H173.88C173.431 32.887 172.982 32.8463 172.661 32.7649C172.297 32.7242 171.955 32.5411 171.677 32.419C171.464 32.2358 171.228 32.0526 171.036 31.8491C170.843 31.666 170.694 31.3607 170.565 31.1165C170.523 30.9333 170.437 30.6688 170.394 30.4042C170.33 30.1397 170.309 29.8954 170.33 29.6309C170.33 29.3663 170.352 29.0814 170.394 28.8168C170.394 28.5523 170.437 28.2674 170.501 28.0232L172.49 20.9817C172.575 20.6765 172.704 20.3916 172.832 20.0456C172.96 19.7403 173.195 19.3944 173.367 19.0891C173.559 18.7839 173.816 18.4582 174.008 18.153C174.286 17.8477 174.585 17.5831 174.863 17.3186C175.141 17.1354 175.441 16.9116 175.697 16.7488C176.018 16.5656 176.36 16.4028 176.681 16.2603C176.895 16.2196 177.215 16.1179 177.493 16.0772C177.771 16.0365 178.113 16.0161 178.37 16.0161H189.938V15.9551Z" fill="#4BBD99"/>
<path d="M208.797 32.8063H201.57V30.9951C201.57 31.1172 201.463 31.2596 201.399 31.3207C201.313 31.4021 201.185 31.5649 201.121 31.6056C201.035 31.7277 200.864 31.8702 200.779 31.9312C200.693 32.0126 200.522 32.1754 200.436 32.2161C200.158 32.4196 199.838 32.5825 199.517 32.6639C199.239 32.7046 198.897 32.786 198.576 32.786H191.028C190.622 32.786 190.259 32.7453 189.981 32.6842C189.66 32.6435 189.403 32.5214 189.147 32.3993C188.933 32.2772 188.719 32.1347 188.527 31.9109C188.398 31.7277 188.27 31.4632 188.184 31.1986C188.099 30.934 188.056 30.6084 188.056 30.2625C188.056 29.9165 188.078 29.5298 188.12 29.2042C188.163 28.8786 188.27 28.4512 188.313 28.1053C188.398 27.7593 188.505 27.3726 188.591 27.0674C188.633 26.7621 188.783 26.4161 188.869 26.1109C188.954 25.8056 189.125 25.4189 189.211 25.073C189.339 24.727 189.489 24.4217 189.681 24.0758C189.809 23.7705 190.066 23.4042 190.259 23.1396C190.472 22.8344 190.793 22.5495 191.071 22.3256C191.392 22.061 191.755 21.8372 192.119 21.7151C192.44 21.593 192.782 21.4912 193.124 21.4302C193.487 21.3691 193.851 21.3284 194.236 21.3284H202.617C202.746 21.3284 202.981 21.2877 203.131 21.2063C203.323 21.1656 203.494 20.9824 203.665 20.8603C203.751 20.8196 203.879 20.6772 203.964 20.5347C204.05 20.4126 204.114 20.2702 204.157 20.1888C204.2 20.0667 204.2 19.9242 204.157 19.8021C204.114 19.68 204.071 19.5579 203.986 19.4765C203.9 19.3951 203.815 19.2933 203.687 19.2119C203.58 19.1509 203.451 19.1102 203.323 19.1102H194.171L195.091 15.793H208.647C209.096 15.793 209.545 15.8337 209.887 15.8947C210.208 15.9761 210.572 16.1186 210.828 16.2407C211.106 16.3628 211.384 16.607 211.577 16.8309C211.769 17.0547 211.94 17.3396 212.026 17.6042C212.154 17.8688 212.218 18.1537 212.261 18.4182C212.304 18.7235 212.304 19.0084 212.304 19.3137C212.304 19.7003 212.261 20.1481 212.175 20.5347C212.09 20.9214 212.047 21.3488 211.897 21.6947L208.797 32.8063ZM202.917 24.666H198.918C198.726 24.666 198.512 24.7474 198.384 24.7881C198.191 24.8695 197.999 24.9712 197.806 25.1137C197.678 25.2358 197.486 25.3986 197.4 25.541C197.272 25.7242 197.186 25.887 197.122 26.0295L196.438 28.4512C196.395 28.5326 196.395 28.6954 196.395 28.7768C196.438 28.8989 196.438 29.0414 196.502 29.1228C196.588 29.2042 196.695 29.367 196.844 29.4077C196.93 29.4891 197.122 29.5298 197.208 29.5298H200.479C200.565 29.5298 200.714 29.5095 200.843 29.4281C201.035 29.3874 201.185 29.2246 201.313 29.1432C201.399 29.1025 201.527 28.9396 201.591 28.8582C201.677 28.7361 201.784 28.5937 201.784 28.5123L202.917 24.666Z" fill="#4BBD99"/>
<path d="M219.595 32.887H211.384L216.109 15.9551H233.386C234.241 15.9551 234.968 16.1586 235.546 16.5046C236.08 16.8098 236.422 17.2575 236.7 17.8274C236.786 18.0309 236.85 18.3158 236.935 18.56C236.978 18.8653 237 19.1502 237 19.4961C236.957 19.8421 236.978 20.1881 236.893 20.534C236.85 20.88 236.743 21.3074 236.657 21.694L233.514 32.887H225.325L228.874 20.2695C228.917 20.0863 228.917 19.9235 228.917 19.8421C228.874 19.72 228.832 19.5979 228.789 19.5165C228.703 19.4351 228.575 19.3333 228.49 19.2926C228.361 19.2519 228.19 19.2316 228.04 19.2316H224.512C224.427 19.2316 224.277 19.2519 224.149 19.2926C223.956 19.3333 223.828 19.4351 223.743 19.4758C223.657 19.5572 223.55 19.6386 223.401 19.7607C223.315 19.8828 223.251 20.0253 223.208 20.2084L219.595 32.887Z" fill="#4BBD99"/>
</svg>