<svg width="22" height="22" viewBox="0 0 22 22" fill="none" xmlns="http://www.w3.org/2000/svg">
<path d="M11 21.7789C17.0751 21.7789 22 17.0954 22 11.3181C22 5.54084 17.0751 0.857422 11 0.857422C4.92487 0.857422 0 5.54084 0 11.3181C0 17.0954 4.92487 21.7789 11 21.7789Z" fill="#9E9D9E"/>
<path d="M11 5.86372C12.8682 5.86372 13.0891 5.87109 13.8295 5.90427C14.5116 5.93375 14.8837 6.04065 15.1279 6.13279C15.4535 6.25443 15.6861 6.39818 15.9341 6.63039C16.1822 6.86261 16.3295 7.08376 16.4574 7.39707C16.5543 7.63297 16.6667 7.98313 16.6977 8.63185C16.7326 9.33218 16.7403 9.54596 16.7403 11.3226C16.7403 13.0992 16.7326 13.3093 16.6977 14.0133C16.6667 14.662 16.5543 15.0159 16.4574 15.2481C16.3295 15.5577 16.1783 15.7789 15.9341 16.0148C15.6899 16.247 15.4574 16.3907 15.1279 16.5124C14.8798 16.6045 14.5116 16.7114 13.8295 16.7409C13.093 16.7741 12.8682 16.7814 11 16.7814C9.13178 16.7814 8.91085 16.7741 8.17054 16.7409C7.48837 16.7114 7.11628 16.6045 6.87209 16.5124C6.54651 16.3907 6.31395 16.247 6.06589 16.148C5.82171 15.7826 5.67054 15.5614 5.54264 15.2481C5.44574 15.0122 5.33333 14.662 5.30233 14.0133C5.26744 13.313 5.25969 13.0992 5.25969 11.3226C5.25969 9.54596 5.26744 9.33587 5.30233 8.63185C5.33333 7.98313 5.44574 7.62928 5.54264 7.39707C5.67054 7.08745 5.82171 6.86629 6.06589 6.63039C6.31008 6.39818 6.54264 6.25443 6.87209 6.13279C7.12016 6.04065 7.48837 5.93375 8.17054 5.90427C8.91085 5.87109 9.13178 5.86372 11 5.86372ZM11 4.66211C9.0969 4.66211 8.86047 4.66948 8.1124 4.70265C7.36822 4.73583 6.85659 4.8464 6.41473 5.01227C5.95349 5.18182 5.56202 5.41035 5.17442 5.77895C4.78682 6.14754 4.54651 6.51982 4.36822 6.95844C4.1938 7.38232 4.07752 7.86518 4.04264 8.57288C4.00775 9.28426 4 9.5091 4 11.3189C4 13.1287 4.00775 13.3535 4.04264 14.0649C4.07752 14.7726 4.1938 15.2592 4.36822 15.6793C4.54651 16.118 4.78682 16.4903 5.17442 16.8588C5.56202 17.2274 5.95349 17.456 6.41473 17.6255C6.86047 17.7914 7.36822 17.902 8.1124 17.9351C8.86047 17.9683 9.0969 17.9757 11 17.9757C12.9031 17.9757 13.1395 17.9683 13.8876 17.9351C14.6318 17.902 15.1434 17.7914 15.5853 17.6255C16.0465 17.456 16.438 17.2274 16.8256 16.8588C17.2132 16.4903 17.4535 16.118 17.6318 15.6793C17.8062 15.2555 17.9225 14.7726 17.9574 14.0649C17.9922 13.3535 18 13.1287 18 11.3189C18 9.5091 17.9922 9.28426 17.9574 8.57288C17.9225 7.86518 17.8062 7.37864 17.6318 6.95844C17.4535 6.51982 17.2132 6.14754 16.8256 5.77895C16.438 5.41035 16.0465 5.18182 15.5853 5.01227C15.1395 4.8464 14.6318 4.73583 13.8876 4.70265C13.1395 4.66948 12.9031 4.66211 11 4.66211Z" fill="white"/>
<path d="M11 8.46484C8.7931 8.46484 7 9.95328 7 11.7932C7 13.6295 8.78879 15.1216 11 15.1216C13.2069 15.1216 15 13.6331 15 11.7932C15 9.95328 13.2112 8.46484 11 8.46484ZM11 13.9523C9.56466 13.9523 8.40517 12.984 8.40517 11.7932C8.40517 10.5989 9.56897 9.63407 11 9.63407C12.4353 9.63407 13.5948 10.6025 13.5948 11.7932C13.5948 12.984 12.4353 13.9523 11 13.9523Z" fill="white"/>
<path d="M14.5 9.41546C14.7761 9.41546 15 8.98973 15 8.46457C15 7.9394 14.7761 7.51367 14.5 7.51367C14.2239 7.51367 14 7.9394 14 8.46457C14 8.98973 14.2239 9.41546 14.5 9.41546Z" fill="white"/>
</svg>
