<svg width="22" height="22" viewBox="0 0 22 22" fill="none" xmlns="http://www.w3.org/2000/svg">
<path d="M11 21.7789C17.0751 21.7789 22 17.0954 22 11.3181C22 5.54084 17.0751 0.857422 11 0.857422C4.92487 0.857422 0 5.54084 0 11.3181C0 17.0954 4.92487 21.7789 11 21.7789Z" fill="#9E9D9E"/>
<path d="M18 11.9108C18 11.0718 17.3148 10.3927 16.4685 10.3927C16.0544 10.3927 15.6807 10.5561 15.4059 10.8176C14.358 10.0695 12.9144 9.58281 11.3059 9.52833L12.0058 6.27063L14.2884 6.75003C14.3177 7.32385 14.7904 7.78508 15.3766 7.78508C15.9812 7.78508 16.4721 7.29843 16.4721 6.69918C16.4721 6.09994 15.9812 5.61328 15.3766 5.61328C14.9479 5.61328 14.5779 5.86024 14.3983 6.21979L11.8519 5.68229C11.7823 5.66776 11.7053 5.68229 11.6467 5.7186C11.5844 5.75855 11.5441 5.82029 11.5294 5.8893L10.749 9.52107C9.11856 9.56465 7.6493 10.0513 6.59042 10.8067C6.31562 10.5452 5.9419 10.3818 5.53153 10.3818C4.68516 10.3818 4 11.0609 4 11.8999C4 12.5173 4.37372 13.0475 4.905 13.2836C4.88302 13.4361 4.86836 13.5887 4.86836 13.7448C4.86836 16.0837 7.61266 17.9758 10.9982 17.9758C14.3837 17.9758 17.128 16.0801 17.128 13.7448C17.128 13.5923 17.117 13.4398 17.0913 13.2872C17.6263 13.0621 18 12.5282 18 11.9108ZM7.49176 12.9967C7.49176 12.3974 7.98272 11.9108 8.58728 11.9108C9.19183 11.9108 9.6828 12.3974 9.6828 12.9967C9.6828 13.5959 9.19183 14.0826 8.58728 14.0826C7.98272 14.0789 7.49176 13.5923 7.49176 12.9967ZM13.5959 15.8622C12.8485 16.603 11.4159 16.6611 10.9945 16.6611C10.5731 16.6611 9.14054 16.603 8.39309 15.8622C8.28317 15.7532 8.28317 15.5752 8.39309 15.4627C8.50301 15.3537 8.68254 15.3537 8.79613 15.4627C9.26878 15.9312 10.2764 16.0946 10.9945 16.0946C11.7126 16.0946 12.7202 15.9275 13.1929 15.4627C13.3028 15.3537 13.4823 15.3537 13.5959 15.4627C13.7058 15.5752 13.7058 15.7532 13.5959 15.8622ZM13.4017 14.079C12.7972 14.079 12.3062 13.5923 12.3062 12.993C12.3062 12.3938 12.7972 11.9071 13.4017 11.9071C14.0063 11.9071 14.4973 12.3938 14.4973 12.993C14.4973 13.5923 14.0063 14.079 13.4017 14.079Z" fill="white"/>
</svg>