<svg width="22" height="22" viewBox="0 0 22 22" fill="none" xmlns="http://www.w3.org/2000/svg">
<path d="M11 21.7789C17.0751 21.7789 22 17.0954 22 11.3181C22 5.54084 17.0751 0.857422 11 0.857422C4.92487 0.857422 0 5.54084 0 11.3181C0 17.0954 4.92487 21.7789 11 21.7789Z" fill="#9E9D9E"/>
<path d="M7.70568 12.5018L5.22128 11.7389C5.22128 11.7389 4.92316 11.6252 5.01898 11.3675C5.04028 11.314 5.07932 11.2705 5.19644 11.1902C5.74656 10.8288 15.386 7.56308 15.386 7.56308C15.386 7.56308 15.6593 7.47608 15.819 7.53297C15.8935 7.55974 15.9397 7.58985 15.9787 7.69692C15.9929 7.73707 16 7.82072 16 7.90438C16 7.9646 15.9929 8.02149 15.9858 8.10848C15.9255 9.00187 14.1686 15.6671 14.1686 15.6671C14.1686 15.6671 14.0622 16.0586 13.686 16.072C13.5476 16.0754 13.3807 16.0519 13.182 15.888C12.4438 15.289 9.88839 13.6696 9.32408 13.3149C9.29214 13.2948 9.28149 13.268 9.27794 13.2446C9.27084 13.2078 9.31343 13.161 9.31343 13.161C9.31343 13.161 13.7605 9.43351 13.8812 9.04202C13.8918 9.01191 13.8563 8.99518 13.8102 9.0856C13.5156 9.11229 8.39421 12.1605 7.82635 12.4985C7.79795 12.5152 7.70568 12.5018 7.70568 12.5018Z" fill="white"/>
</svg>
