<svg width="22" height="22" viewBox="0 0 22 22" fill="none" xmlns="http://www.w3.org/2000/svg">
<path d="M11 21.7789C17.0751 21.7789 22 17.0954 22 11.3181C22 5.54084 17.0751 0.857422 11 0.857422C4.92487 0.857422 0 5.54084 0 11.3181C0 17.0954 4.92487 21.7789 11 21.7789Z" fill="#9E9D9E"/>
<path d="M9.4014 17.9741C14.6853 17.9741 17.5744 13.5812 17.5744 9.77484C17.5744 9.64998 17.5706 9.52511 17.5668 9.40404C18.1288 8.9954 18.6153 8.48839 19 7.91327C18.4833 8.14407 17.9327 8.29542 17.3518 8.36731C17.944 8.01165 18.4003 7.4441 18.6153 6.77439C18.0609 7.10356 17.4461 7.34572 16.7899 7.47436C16.2656 6.91438 15.5189 6.5625 14.6929 6.5625C13.1051 6.5625 11.819 7.85273 11.819 9.44566C11.819 9.67268 11.8454 9.89213 11.8944 10.104C9.50701 9.98294 7.38739 8.83649 5.97306 7.09221C5.72791 7.51977 5.58459 8.01165 5.58459 8.54136C5.58459 9.54025 6.08998 10.4256 6.86315 10.9402C6.3917 10.9251 5.95043 10.7964 5.56196 10.5808C5.56196 10.5921 5.56196 10.6035 5.56196 10.6186C5.56196 12.0148 6.55388 13.1801 7.86638 13.445C7.625 13.5093 7.37231 13.5472 7.1083 13.5472C6.92349 13.5472 6.74246 13.5282 6.56897 13.4942C6.93481 14.6406 7.99461 15.473 9.25431 15.4957C8.26994 16.2676 7.03287 16.7292 5.68642 16.7292C5.45636 16.7292 5.22629 16.7141 5 16.6876C6.26724 17.4973 7.77586 17.9741 9.4014 17.9741Z" fill="white"/>
</svg>
