<svg width="31" height="30" viewBox="0 0 31 30" fill="none" xmlns="http://www.w3.org/2000/svg">
<path d="M26.4604 4.39313C23.5329 1.56 19.6404 0 15.5 0C11.3596 0 7.46712 1.56 4.53956 4.39313C1.612 7.22625 0 10.9931 0 15C0 19.0069 1.612 22.7738 4.53956 25.6069C7.46712 28.44 11.3596 30 15.5 30C19.6404 30 23.5329 28.44 26.4604 25.6069C29.388 22.7738 31 19.0069 31 15C31 10.9931 29.388 7.22625 26.4604 4.39313ZM27.125 15C27.1276 17.336 26.3749 19.6143 24.9724 21.5156L8.76719 5.83313C10.7319 4.47588 13.0861 3.74749 15.5 3.75C21.9093 3.75 27.125 8.7975 27.125 15ZM3.875 15C3.8724 12.664 4.62508 10.3857 6.02756 8.48438L22.2328 24.1669C20.2681 25.5241 17.9139 26.2525 15.5 26.25C9.09075 26.25 3.875 21.2025 3.875 15Z" fill="#4BBD99"/>
</svg>
