<svg width="106" height="106" viewBox="0 0 106 106" fill="none" xmlns="http://www.w3.org/2000/svg">
<circle cx="53" cy="53" r="53" fill="#4BBD99"/>
<path fill-rule="evenodd" clip-rule="evenodd" d="M32.922 55.261C35.5327 55.261 43.5553 55.261 43.5553 55.261V55.2334C42.6733 54.855 41.9183 54.2425 41.248 53.4581C40.2108 51.9167 40.0273 50.0105 40.7047 47.7328C41.3045 45.6822 42.6239 43.783 44.5996 42.0351C46.5753 40.363 49.1436 39.5303 52.34 39.5303H75.8081L79.9359 36.2824L75.8505 33H49.4259C45.0864 33 40.9587 34.3694 38.0023 39.028L31.8071 52.5222C31.8071 52.5222 30.3042 55.261 32.922 55.261ZM67.1081 50.4234L69.6271 44.9528H50.7242C49.2212 44.9528 48.177 45.1799 47.6901 45.6616C46.9351 46.3979 46.4694 47.1066 46.2648 47.8154C45.8979 49.0334 46.2154 49.8385 47.2526 50.2445L48.2122 50.4234H48.184H67.1081Z" fill="white"/>
<path d="M56.5659 59.7141L57.1092 58.5787C57.6525 56.7551 56.7987 55.8399 54.5126 55.8399H46.4124C45.3751 55.8399 44.4155 55.6404 43.5547 55.2344L40.7535 61.3106H53.4754C54.7455 61.3106 5.7897 60.7807 56.5659 59.7141Z" fill="white"/>
<path d="M72.5412 50.4238H57.6742C57.7025 50.472 62.6064 51.1601 63.0579 55.4885C63.1073 56.5551 62.9803 57.6148 62.6699 58.6538C61.6609 61.9981 59.4947 66.7325 52.1565 66.7325H30.0783L26 69.5469L30.0783 72.6848H58.5845C62.945 72.6848 67.1292 71.2672 70.0857 66.4779L74.9684 55.8394C74.9755 55.8463 77.558 50.4238 72.5412 50.4238Z" fill="white"/>
</svg>
