<svg width="32" height="36" viewBox="0 0 32 36" fill="none" xmlns="http://www.w3.org/2000/svg">
<path d="M8.9693 0.674379C8.72258 0.710269 8.48944 0.797798 8.28974 0.929506C3.30938 3.78883 0 8.69732 0 14.2884C0 22.6628 7.39607 29.5458 16.775 30.2339V31.8447C13.6518 32.1582 11.3928 33.2873 11.3928 33.2873C11.1213 33.4307 10.9105 33.6474 10.792 33.9047C10.6736 34.162 10.6539 34.446 10.736 34.7139C10.8181 34.9819 10.9975 35.2192 11.2472 35.3902C11.4969 35.5612 11.8034 35.6567 12.1204 35.6621H24.5325C24.8496 35.6567 25.1561 35.5612 25.4058 35.3902C25.6555 35.2192 25.8349 34.9819 25.917 34.7139C25.9991 34.446 25.9794 34.162 25.8609 33.9047C25.7425 33.6474 25.5317 33.4307 25.2602 33.2873C25.2602 33.2873 23.0012 32.1582 19.878 31.8447V30.2759C22.9086 30.0444 25.8251 29.1549 28.3632 27.688C28.5603 27.6026 28.7343 27.4815 28.8737 27.3328C29.0132 27.1841 29.1149 27.0112 29.1722 26.8255C29.2294 26.6398 29.2409 26.4455 29.2058 26.2557C29.1708 26.0658 29.0899 25.8846 28.9687 25.7241C28.8475 25.5636 28.6887 25.427 28.5028 25.3248C28.3169 25.2221 28.1081 25.1551 27.8903 25.1283C27.6726 25.1015 27.4508 25.1155 27.2397 25.1694C27.0286 25.2232 26.833 25.3157 26.6659 25.4407C24.2726 26.8167 21.4803 27.5671 18.6166 27.6039C18.4249 27.572 18.2281 27.572 18.0364 27.6039C14.0484 27.5388 10.2491 26.1069 7.45594 23.6164C4.66281 21.1259 3.09916 17.7758 3.10148 14.2871C3.10303 9.62691 5.85231 5.55165 9.9871 3.1768C10.2908 3.01428 10.5214 2.76533 10.6401 2.47173C10.7589 2.17813 10.7586 1.85774 10.6392 1.56433C10.5199 1.27091 10.2888 1.02232 9.98473 0.860281C9.68067 0.698238 9.32214 0.6326 8.9693 0.674379ZM18.3265 2.07487C15.9247 2.07092 13.565 2.62694 11.4905 3.6857C11.2904 3.76441 11.098 3.87568 10.9087 3.98289C10.6648 4.11816 10.4372 4.27456 10.2291 4.44972C6.8701 6.63187 4.65299 10.1073 4.65299 14.0333C4.65299 16.3579 5.41634 18.5116 6.73823 20.3518C6.7888 20.4444 6.85409 20.5303 6.93217 20.6069C9.38666 23.8326 13.5835 25.9931 18.3265 25.9931C20.9589 26.0021 23.5371 25.3385 25.7443 24.0837C25.8156 24.0443 25.8715 23.9995 25.9382 23.9575C29.5765 21.8025 32 18.1479 32 14.0333C32.0048 11.848 31.3162 9.70437 30.0109 7.84101C29.9459 7.66298 29.8294 7.50265 29.6727 7.37554C29.6587 7.35926 29.6355 7.3484 29.6231 7.33212C29.5933 7.30259 29.5617 7.2745 29.5284 7.24798C27.0506 4.14574 22.9593 2.07351 18.3265 2.07351V2.07487ZM18.3265 4.28009C19.325 4.2793 20.3192 4.39336 21.2837 4.61935L19.5863 5.59372C19.0278 5.21375 18.4537 4.86905 17.8905 4.57593C17.709 4.48229 17.5399 4.4063 17.3568 4.32216C17.6792 4.29647 18.0027 4.28243 18.3265 4.28009ZM13.5261 5.50959C14.3593 5.49601 15.4158 5.77014 16.6291 6.39982C16.8603 6.51924 17.1225 6.68073 17.3568 6.82458L11.2469 10.2579C11.1957 10.0137 11.1306 9.7694 11.1026 9.5387C10.859 7.57367 11.4378 6.29939 12.3144 5.80678C12.3268 5.8 12.3516 5.81221 12.3625 5.80678C12.6852 5.63443 13.0467 5.51637 13.5261 5.50823V5.50959ZM23.9988 5.67922C24.0154 5.67951 24.0319 5.67951 24.0485 5.67922C25.1758 6.25528 26.177 7.00196 27.0057 7.88444L23.9026 9.62284C23.1439 8.69461 22.3682 7.82202 21.5257 7.07835L23.9988 5.67922ZM19.3443 8.30784C20.232 9.08058 21.0432 9.91771 21.7693 10.8103L13.5742 15.4324C12.9467 14.4843 12.4121 13.4915 11.9761 12.4645L19.3458 8.30784H19.3443ZM8.62952 9.19943C8.64193 9.38264 8.65435 9.56448 8.67762 9.7504C8.74744 10.3109 8.90724 10.8958 9.0655 11.4888L7.32004 12.4645C7.5281 11.316 7.97172 10.2099 8.62952 9.19943ZM28.3151 9.70833C28.8737 10.7017 29.2848 11.7765 29.4291 12.9313C29.3953 12.9578 29.3632 12.9859 29.3329 13.0155L26.8598 14.4146C26.4409 13.4389 25.9056 12.4333 25.2602 11.4467L28.3136 9.70833H28.3151ZM23.1269 12.6342C23.7559 13.5817 24.2911 14.5746 24.7265 15.602L17.3087 19.7587C16.421 18.986 15.6098 18.1489 14.8837 17.2563L23.1269 12.6342ZM9.79316 13.6519C10.2183 14.6331 10.7892 15.6292 11.4424 16.6198L8.33939 18.3582C7.749 17.3363 7.37076 16.2308 7.2223 15.0931L9.79316 13.6533V13.6519ZM29.3329 15.602C29.1249 16.7505 28.6812 17.8567 28.0234 18.8671C28.011 18.6704 28.0002 18.4736 27.9753 18.2741C27.9071 17.7286 27.7892 17.1532 27.6356 16.5778L29.3329 15.602ZM25.4045 17.8073C25.4541 18.0448 25.5224 18.304 25.5503 18.5279C25.7939 20.4929 25.2152 21.7251 24.3386 22.2191C23.462 22.7117 21.9648 22.675 20.0238 21.6667C19.7927 21.5473 19.5305 21.3858 19.2962 21.242L25.406 17.8086L25.4045 17.8073ZM12.7503 18.4437C13.4793 19.3474 14.2903 20.1983 15.1754 20.9882L12.6061 22.4308C11.4791 21.8537 10.4775 21.1072 9.64732 20.2255L12.7503 18.4437ZM17.1148 22.4728C17.6562 22.8379 18.2163 23.1649 18.7625 23.4472C18.9766 23.5585 19.1767 23.6467 19.3924 23.7458C19.0379 23.773 18.6823 23.7866 18.3265 23.7865C17.328 23.7871 16.3338 23.6731 15.3693 23.4472L17.1148 22.4728Z" fill="#4BBD99"/>
</svg>
