<svg width="41" height="31" viewBox="0 0 41 31" fill="none" xmlns="http://www.w3.org/2000/svg">
<path fill-rule="evenodd" clip-rule="evenodd" d="M5.26169 17.5841C7.24625 17.5841 13.3447 17.5841 13.3447 17.5841V17.5631C12.6743 17.2754 12.1004 16.8099 11.5908 16.2136C10.8024 15.0418 10.6629 13.5929 11.1778 11.8615C11.6337 10.3026 12.6367 8.85892 14.1386 7.53027C15.6404 6.25917 17.5928 5.62623 20.0225 5.62623H37.8621L40.9999 3.15725L37.8943 0.662109H17.8073C14.5087 0.662109 11.3709 1.70306 9.12353 5.24437L4.41423 15.5022C4.41423 15.5022 3.27176 17.5841 5.26169 17.5841ZM31.2487 13.9067L33.1635 9.74817H18.7942C17.6518 9.74817 16.858 9.92079 16.4879 10.287C15.9139 10.8467 15.5599 11.3854 15.4044 11.9242C15.1255 12.8501 15.3669 13.4621 16.1553 13.7707L16.8848 13.9067H16.8633H31.2487Z" fill="#4BBD99"/>
<path d="M23.2352 20.9678L23.6482 20.1047C24.0612 18.7185 23.4122 18.0228 21.6744 18.0228H15.5169C14.7284 18.0228 13.999 17.8711 13.3446 17.5625L11.2152 22.1814H20.8859C21.8514 22.1814 22.6452 21.7786 23.2352 0.9678Z" fill="#007E94"/>
<path d="M35.3788 13.9062H24.0776C24.099 13.9429 27.8268 14.466 28.17 17.7562C28.2076 18.567 28.111 19.3725 27.875 20.1624C27.108 22.7046 25.4614 26.3035 19.8832 26.3035H3.10021L0 28.4429L3.10021 30.8282H24.7695C28.0842 30.8282 31.2649 29.7506 33.5123 26.1099L37.2239 18.023C37.2293 18.0282 39.1924 13.9062 35.3788 13.9062Z" fill="#007E94"/>
</svg>
