<svg width="38" height="35" viewBox="0 0 38 35" fill="none" xmlns="http://www.w3.org/2000/svg"><path d="M22.59 10.836H5.944a1.25 1.25 0 0 1-.84-.317 1.038 1.038 0 0 1-.35-.767V5.418c0-.288.126-.563.35-.767a1.25 1.25 0 0 1 .84-.317h16.644c.316 0 .618.114.841.317.223.204.348.48.348.767v4.334c0 .288-.125.563-.348.767a1.25 1.25 0 0 1-.84.317ZM7.133 8.67H21.4V6.436H7.134V8.67Zm15.457 4.422H5.944a1.25 1.25 0 0 0-.84.317 1.037 1.037 0 0 0-.35.766v4.248c0 .288.126.564.35.767.222.203.524.317.84.317H19.45l4.327-4.01v-1.322c0-.287-.125-.563-.348-.766a1.25 1.25 0 0 0-.84-.317ZM21.4 17.34H7.135v-2.168H21.4v2.168Z" fill="#4BBD99"/><path d="M10.771 31.98v-.066l.38-1.506H2.379V2.168h23.778v11.107l2.378-2.048V1.084a1.04 1.04 0 0 0-.349-.767 1.25 1.25 0 0 0-.84-.317H1.189a1.25 1.25 0 0 0-.84.317A1.037 1.037 0 0 0 0 1.084v30.343c0 .287.125.563.348.766.223.203.526.317.84.317H10.7c.01-.178.034-.355.071-.53Z" fill="#4BBD99"/><path d="M4.756 27.027c0 .288.125.563.348.767.223.203.526.317.84.317H11.7l.357-1.409.154-.596v-.05H7.134v-2.21h7.537l2.378-2.168H5.945a1.25 1.25 0 0 0-.84.317 1.038 1.038 0 0 0-.35.767v4.27Zm32.682-11.13-4.006-3.652a1.936 1.936 0 0 0-.622-.38 2.076 2.076 0 0 0-1.467 0 1.936 1.936 0 0 0-.622.38l-16.3 14.944-1.343 5.212a1.6 1.6 0 0 0-.003.682c.048.226.144.44.283.631.14.192.319.356.528.484.209.128.443.217.69.262.123.012.246.012.369 0 .145.022.294.022.44 0l5.766-1.16 16.287-14.878a1.73 1.73 0 0 0 .416-.564 1.601 1.601 0 0 0 0-1.332 1.732 1.732 0 0 0-.416-.564v-.065Zm-17.5 15.432-4.351.877 1.058-3.933 12.222-11.26 3.352 3.056-12.281 11.26Zm13.625-12.484-3.353-3.056 1.89-1.702 3.377 3.078-1.914 1.68Z" fill="#4BBD99"/></svg>
